<svg width="32" height="32" viewBox="0 0 32 32" fill="none" xmlns="http://www.w3.org/2000/svg">
<path d="M24.38 19.81H22.85V22.86H19.81V24.38H16.76V25.9H21.33V27.43H22.85V28.95H24.38V30.48H25.9V32H27.43V30.48H28.95V28.95H30.47V27.43H32V25.9H30.47V24.38H28.95V22.86H27.43V21.33H25.9V16.76H24.38V19.81Z" fill="white"/>
<path d="M27.43 10.67H25.9V16.76H27.43V10.67Z" fill="white"/>
<path d="M25.9 7.62H24.38V10.67H25.9V7.62Z" fill="white"/>
<path d="M24.38 4.56995H22.85V7.61995H24.38V4.56995Z" fill="white"/>
<path d="M22.85 12.1899H21.33V15.2399H22.85V12.1899Z" fill="white"/>
<path d="M21.33 9.14001H19.81V12.19H21.33V9.14001Z" fill="white"/>
<path d="M22.85 3.05005H19.81V4.57005H22.85V3.05005Z" fill="white"/>
<path d="M19.81 7.62H16.76V9.14H19.81V7.62Z" fill="white"/>
<path d="M19.81 1.52002H16.76V3.05002H19.81V1.52002Z" fill="white"/>
<path d="M16.76 6.09998H13.71V7.61998H16.76V6.09998Z" fill="white"/>
<path d="M16.76 25.9H10.66V27.43H16.76V25.9Z" fill="white"/>
<path d="M16.76 0H10.66V1.52H16.76V0Z" fill="white"/>
<path d="M10.66 24.38H7.62V25.9H10.66V24.38Z" fill="white"/>
<path d="M10.66 1.52002H7.62V3.05002H10.66V1.52002Z" fill="white"/>
<path d="M7.62001 22.86H4.57001V24.38H7.62001V22.86Z" fill="white"/>
<path d="M7.62001 3.05005H4.57001V4.57005H7.62001V3.05005Z" fill="white"/>
<path d="M4.57 19.8101H3.05V22.8601H4.57V19.8101Z" fill="white"/>
<path d="M4.57 4.56995H3.05V7.61995H4.57V4.56995Z" fill="white"/>
<path d="M3.05 16.76H1.52V19.81H3.05V16.76Z" fill="white"/>
<path d="M3.05 7.62H1.52V10.67H3.05V7.62Z" fill="white"/>
<path d="M1.52 10.67H0V16.76H1.52V10.67Z" fill="white"/>
</svg>
