<svg width="20" height="20" viewBox="0 0 20 20" fill="none" xmlns="http://www.w3.org/2000/svg">
<g clip-path="url(#clip0_4735_539335)">
<path d="M18.0969 14.2795H1.90938V4.76074H0.953125V16.1857H1.90938V17.142H7.62187V18.092H8.57188V17.142H11.4281V18.092H12.3844V17.142H18.0969V16.1857H19.0469V4.76074H18.0969V14.2795Z" fill="white"/>
<path d="M18.0973 3.80859H14.291V4.76484H18.0973V3.80859Z" fill="white"/>
<path d="M7.62236 19.0457V18.0957H6.67236V20.002H13.3349V18.0957H12.3849V19.0457H7.62236Z" fill="white"/>
<path d="M11.4285 9.52637H8.57227V10.4764H11.4285V9.52637Z" fill="white"/>
<path d="M11.4285 11.4258H8.57227V12.382H11.4285V11.4258Z" fill="white"/>
<path d="M9.52861 0V0.95H8.57236V1.90625H7.62236V2.85625H6.67236V3.80625H8.57236V8.56875H11.4286V3.80625H13.3349V2.85625H12.3849V1.90625H11.4286V0.95H10.4786V0H9.52861Z" fill="white"/>
<path d="M5.71592 3.80859H1.90967V4.76484H5.71592V3.80859Z" fill="white"/>
</g>
<defs>
<clipPath id="clip0_4735_539335">
<rect width="20" height="20" fill="white"/>
</clipPath>
</defs>
</svg>
