<svg width="20" height="20" viewBox="0 0 20 20" fill="none" xmlns="http://www.w3.org/2000/svg">
<path d="M19.0005 13.4011H17.9441V15.6536H19.0005V13.4011Z" fill="white"/>
<path d="M17.9454 15.6434H16.889V16.766H17.9454V15.6434Z" fill="white"/>
<path d="M17.9454 12.2596H16.889V13.3821H17.9454V12.2596Z" fill="white"/>
<path d="M16.8877 6.63346H15.8243V12.261H16.8877V6.63346Z" fill="white"/>
<path d="M16.889 16.785H14.7693V17.9149H16.889V16.785Z" fill="white"/>
<path d="M15.8257 14.5019H14.7693V15.6318H15.8257V14.5019Z" fill="white"/>
<path d="M15.8257 4.39116H14.7693V6.64366H15.8257V4.39116Z" fill="white"/>
<path d="M7.35279 15.6536H8.41614V16.7762H11.5923V15.6536H12.6487V14.5237H14.7685V13.4011H5.23998V14.5237H7.35279V15.6536Z" fill="white"/>
<path d="M14.7694 3.24962H13.713V4.37218H14.7694V3.24962Z" fill="white"/>
<path d="M14.7685 17.8857H5.23998V19.0083H14.7685V17.8857Z" fill="white"/>
<path d="M13.7118 2.14886H11.592V3.2788H13.7118V2.14886Z" fill="white"/>
<path d="M11.5922 1.00732H8.41601V2.12988H11.5922V1.00732Z" fill="white"/>
<path d="M8.41482 2.14886H6.29506V3.2788H8.41482V2.14886Z" fill="white"/>
<path d="M6.29639 3.24962H5.23998V4.37218H6.29639V3.24962Z" fill="white"/>
<path d="M5.23999 16.785H3.12024V17.9149H5.23999V16.785Z" fill="white"/>
<path d="M5.23987 14.5019H4.17651V15.6318H5.23987V14.5019Z" fill="white"/>
<path d="M5.23987 4.39116H4.17651V6.64366H5.23987V4.39116Z" fill="white"/>
<path d="M4.17664 6.63346H3.12024V12.261H4.17664V6.63346Z" fill="white"/>
<path d="M3.12251 15.6434H2.05916V16.766H3.12251V15.6434Z" fill="white"/>
<path d="M3.12251 12.2596H2.05916V13.3821H3.12251V12.2596Z" fill="white"/>
<path d="M2.05689 13.4011H1.00049V15.6536H2.05689V13.4011Z" fill="white"/>
</svg>
