<svg width="32" height="32" viewBox="0 0 32 32" fill="none" xmlns="http://www.w3.org/2000/svg">
<path d="M32 5.32996H30.47V23.62H32V5.32996Z" fill="white"/>
<path d="M30.47 23.62H28.95V25.14H30.47V23.62Z" fill="white"/>
<path d="M30.47 3.81006H28.95V5.33006H30.47V3.81006Z" fill="white"/>
<path d="M28.95 25.14H27.43V26.66H28.95V25.14Z" fill="white"/>
<path d="M28.95 2.28003H27.43V3.81003H28.95V2.28003Z" fill="white"/>
<path d="M27.43 20.5701H25.9V22.0901H27.43V20.5701Z" fill="white"/>
<path d="M27.43 6.85999H25.9V8.37999H27.43V6.85999Z" fill="white"/>
<path d="M27.43 26.66H22.85V28.19H27.43V26.66Z" fill="white"/>
<path d="M25.9 19.05H24.38V20.57H25.9V19.05Z" fill="white"/>
<path d="M25.9 8.38H24.38V9.9H25.9V8.38Z" fill="white"/>
<path d="M27.43 0.76001H22.85V2.28001H27.43V0.76001Z" fill="white"/>
<path d="M24.38 9.90002H22.85V19.05H24.38V9.90002Z" fill="white"/>
<path d="M22.85 25.14H19.81V26.66H22.85V25.14Z" fill="white"/>
<path d="M22.85 2.28003H19.81V3.81003H22.85V2.28003Z" fill="white"/>
<path d="M19.81 23.62H16.76V25.14H19.81V23.62Z" fill="white"/>
<path d="M19.81 3.81006H16.76V5.33006H19.81V3.81006Z" fill="white"/>
<path d="M16.76 22.09H12.19V23.62H16.76V22.09Z" fill="white"/>
<path d="M16.76 5.32996H12.19V6.85996H16.76V5.32996Z" fill="white"/>
<path d="M9.14 20.57V8.37999H12.19V6.85999H4.57V8.37999H1.52V9.89998H0V19.05H1.52V20.57H4.57V29.71H6.09V22.09H9.14V29.71H10.66V22.09H12.19V20.57H9.14ZM4.57 11.43H3.05V14.47H1.52V11.43H3.05V9.89998H4.57V11.43Z" fill="white"/>
<path d="M9.14 29.71H6.09V31.24H9.14V29.71Z" fill="white"/>
</svg>
