<svg width="32" height="32" viewBox="0 0 32 32" fill="none" xmlns="http://www.w3.org/2000/svg">
<path d="M32.0005 10.67H30.4805V12.19H32.0005V10.67Z" fill="white"/>
<path d="M30.48 9.15V6.1H32V4.57H28.95V6.1H27.43V7.62H25.91V9.15H24.38V4.57H22.86V1.53H21.33V4.57H19.81V7.62H18.29V6.1H16.76V3.05H18.29V0H15.24V1.53H13.72V3.05H12.19V6.1H10.67V7.62H9.14V4.57H7.62V3.05H6.1V1.53H3.05V3.05H4.57V7.62H3.05V10.67H4.57V12.19H1.52V10.67H0V15.24H1.52V18.29H3.05V16.77H4.57V13.72H6.1V7.62H7.62V9.15H9.14V10.67H12.19V9.15H13.72V6.1H15.24V9.15H21.33V7.62H22.86V12.19H25.91V16.77H27.43V19.81H28.95V16.77H30.48V12.19H28.95V9.15H30.48Z" fill="white"/>
<path d="M28.9497 1.53003H27.4297V3.05003H28.9497V1.53003Z" fill="white"/>
<path d="M27.4302 3.05005H25.9102V4.57005H27.4302V3.05005Z" fill="white"/>
<path d="M25.9099 0H24.3799V1.53H25.9099V0Z" fill="white"/>
<path d="M24.3804 24.38H22.8604V27.43H24.3804V24.38Z" fill="white"/>
<path d="M22.8604 19.81H24.3804V24.38H25.9104V18.29H24.3804V15.24H22.8604V19.81Z" fill="white"/>
<path d="M22.8601 27.4301H21.3301V28.9601H22.8601V27.4301Z" fill="white"/>
<path d="M22.8601 19.8101H21.3301V21.3401H22.8601V19.8101Z" fill="white"/>
<path d="M22.8601 13.72H21.3301V15.24H22.8601V13.72Z" fill="white"/>
<path d="M21.3296 24.38H19.8096V27.43H21.3296V24.38Z" fill="white"/>
<path d="M21.3296 18.29H19.8096V19.81H21.3296V18.29Z" fill="white"/>
<path d="M21.33 28.96H18.29V30.48H21.33V28.96Z" fill="white"/>
<path d="M19.81 22.86H18.29V24.38H19.81V22.86Z" fill="white"/>
<path d="M19.81 16.77H18.29V18.29H19.81V16.77Z" fill="white"/>
<path d="M21.33 12.1899H18.29V13.7199H21.33V12.1899Z" fill="white"/>
<path d="M18.2902 21.34H15.2402V22.86H18.2902V21.34Z" fill="white"/>
<path d="M18.2898 13.72H16.7598V16.77H18.2898V13.72Z" fill="white"/>
<path d="M15.2404 27.4301H13.7204V30.4801H12.1904V32.0001H18.2904V30.4801H15.2404V27.4301Z" fill="white"/>
<path d="M16.7602 24.38H15.2402V27.43H16.7602V24.38Z" fill="white"/>
<path d="M15.2397 22.86H13.7197V24.38H15.2397V22.86Z" fill="white"/>
<path d="M13.7204 16.77H12.1904V19.81H13.7204V16.77Z" fill="white"/>
<path d="M12.1896 28.96H9.13965V30.48H12.1896V28.96Z" fill="white"/>
<path d="M12.1899 19.8101H10.6699V21.3401H12.1899V19.8101Z" fill="white"/>
<path d="M12.1899 15.24H10.6699V16.77H12.1899V15.24Z" fill="white"/>
<path d="M9.13965 12.19V13.72H12.1896V15.24H13.7196V12.19H18.2896V10.67H12.1896V12.19H9.13965Z" fill="white"/>
<path d="M10.6696 21.34H9.13965V22.86H10.6696V21.34Z" fill="white"/>
<path d="M10.6696 1.53003H9.13965V3.05003H10.6696V1.53003Z" fill="white"/>
<path d="M9.14012 27.4301H7.62012V28.9601H9.14012V27.4301Z" fill="white"/>
<path d="M9.14012 19.8101H7.62012V21.3401H9.14012V19.8101Z" fill="white"/>
<path d="M9.14012 13.72H7.62012V15.24H9.14012V13.72Z" fill="white"/>
<path d="M9.14012 0H7.62012V1.53H9.14012V0Z" fill="white"/>
<path d="M7.61961 24.38H6.09961V27.43H7.61961V24.38Z" fill="white"/>
<path d="M6.10031 19.81H7.62031V15.24H6.10031V18.29H4.57031V24.38H6.10031V19.81Z" fill="white"/>
<path d="M3.04953 4.56995H1.51953V6.09995H3.04953V4.56995Z" fill="white"/>
<path d="M1.52 3.05005H0V4.57005H1.52V3.05005Z" fill="white"/>
</svg>
