<svg width="22" height="22" viewBox="0 0 22 22" fill="none" xmlns="http://www.w3.org/2000/svg">
<path d="M22.0006 7.76416H20.7095V14.2368H22.0006V7.76416Z" fill="white"/>
<path d="M20.7096 14.2366H19.4185V16.8273H20.7096V14.2366Z" fill="white"/>
<path d="M20.7096 5.1731H19.4185V7.76386H20.7096V5.1731Z" fill="white"/>
<path d="M20.7094 3.88252V2.59138H22.0005V1.29175H15.5278V7.76443H16.8275V6.47329H18.1186V5.17366H19.4182V3.88252H20.7094Z" fill="white"/>
<path d="M19.4183 16.8284H18.1187V18.1195H19.4183V16.8284Z" fill="white"/>
<path d="M18.1183 18.1184H16.8271V19.418H18.1183V18.1184Z" fill="white"/>
<path d="M16.8271 19.4182H14.2363V20.7094H16.8271V19.4182Z" fill="white"/>
<path d="M14.2367 20.709H9.05518V22.0001H14.2367V20.709Z" fill="white"/>
<path d="M12.9452 0H7.76367V1.29114H12.9452V0Z" fill="white"/>
<path d="M7.76362 1.29175H5.17285V2.59138H7.76362V1.29175Z" fill="white"/>
<path d="M5.17297 2.59082H3.88184V3.88196H5.17297V2.59082Z" fill="white"/>
<path d="M3.88196 3.88159H2.59082V5.17273H3.88196V3.88159Z" fill="white"/>
<path d="M1.29114 18.1185V19.4181H0V20.7093H6.47268V14.2366H5.17305V15.5277H3.88191V16.8273H2.59077V18.1185H1.29114Z" fill="white"/>
<path d="M2.59065 14.2366H1.29102V16.8273H2.59065V14.2366Z" fill="white"/>
<path d="M2.59065 5.1731H1.29102V7.76386H2.59065V5.1731Z" fill="white"/>
<path d="M1.29114 7.76416H0V14.2368H1.29114V7.76416Z" fill="white"/>
</svg>
