<svg width="32" height="32" viewBox="0 0 32 32" fill="none" xmlns="http://www.w3.org/2000/svg">
<path d="M27.4302 1.51953H25.9102V30.4695H27.4302V1.51953Z" fill="#05F500"/>
<path d="M25.9094 30.4688H22.8594V31.9988H25.9094V30.4688Z" fill="#05F500"/>
<path d="M22.8598 28.9492H21.3398V30.4692H22.8598V28.9492Z" fill="#05F500"/>
<path d="M21.3386 27.4297H19.8086V28.9497H21.3386V27.4297Z" fill="#05F500"/>
<path d="M19.8091 25.8984H18.2891V27.4284H19.8091V25.8984Z" fill="#05F500"/>
<path d="M18.2917 24.3789H16.7617V25.8989H18.2917V24.3789Z" fill="#05F500"/>
<path d="M16.7622 22.8516H15.2422V24.3816H16.7622V22.8516Z" fill="#05F500"/>
<path d="M15.2387 24.3789H13.7188V25.8989H15.2387V24.3789Z" fill="#05F500"/>
<path d="M13.7214 25.8984H12.1914V27.4284H13.7214V25.8984Z" fill="#05F500"/>
<path d="M12.1919 27.4297H10.6719V28.9497H12.1919V27.4297Z" fill="#05F500"/>
<path d="M10.6684 28.9492H9.14844V30.4692H10.6684V28.9492Z" fill="#05F500"/>
<path d="M25.9116 0H6.10156V1.52H25.9116V0Z" fill="#05F500"/>
<path d="M9.15156 30.4688H6.10156V31.9988H9.15156V30.4688Z" fill="#05F500"/>
<path d="M6.10031 1.51953H4.57031V30.4695H6.10031V1.51953Z" fill="#05F500"/>
<rect x="6" y="1" width="20" height="22" fill="#05F500"/>
<rect x="6.10156" y="9" width="3.05005" height="22" fill="#05F500"/>
<rect x="8.03906" y="6.94922" width="3.05005" height="22" fill="#05F500"/>
<rect x="9.14844" y="5.86719" width="3.05005" height="22" fill="#05F500"/>
<rect x="10.8125" y="3.89844" width="3.05005" height="22" fill="#05F500"/>
<rect x="12.3359" y="2.37891" width="3.05005" height="22" fill="#05F500"/>
<rect x="16.6328" y="2.37891" width="3.05005" height="22" fill="#05F500"/>
<rect x="24.3789" width="3.05005" height="22" fill="#05F500"/>
<rect x="4.57422" width="3.05005" height="22" fill="#05F500"/>
<rect x="18.2891" y="3.89844" width="3.05005" height="22" fill="#05F500"/>
<rect x="19.8203" y="5.42969" width="3.05005" height="22" fill="#05F500"/>
<rect x="21.3359" y="6.94922" width="3.05005" height="22" fill="#05F500"/>
<rect x="22.8711" y="8.46875" width="3.05005" height="22" fill="#05F500"/>
</svg>
