<svg width="32" height="32" viewBox="0 0 24 32" fill="none" xmlns="http://www.w3.org/2000/svg">
<g id="Group">
<path id="Vector" d="M23.4302 1.51953H21.9102V30.4695H23.4302V1.51953Z" fill="white"/>
<path id="Vector_2" d="M21.9104 30.4688H18.8604V31.9988H21.9104V30.4688Z" fill="white"/>
<path id="Vector_3" d="M18.8598 28.9492H17.3398V30.4692H18.8598V28.9492Z" fill="white"/>
<path id="Vector_4" d="M17.3405 27.4297H15.8105V28.9497H17.3405V27.4297Z" fill="white"/>
<path id="Vector_5" d="M15.81 25.8984H14.29V27.4284H15.81V25.8984Z" fill="white"/>
<path id="Vector_6" d="M14.2907 24.3789H12.7607V25.8989H14.2907V24.3789Z" fill="white"/>
<path id="Vector_7" d="M12.7602 22.8516H11.2402V24.3816H12.7602V22.8516Z" fill="white"/>
<path id="Vector_8" d="M11.2407 24.3789H9.7207V25.8989H11.2407V24.3789Z" fill="white"/>
<path id="Vector_9" d="M9.72043 25.8984H8.19043V27.4284H9.72043V25.8984Z" fill="white"/>
<path id="Vector_10" d="M8.18992 27.4297H6.66992V28.9497H8.18992V27.4297Z" fill="white"/>
<path id="Vector_11" d="M6.67039 28.9492H5.15039V30.4692H6.67039V28.9492Z" fill="white"/>
<path id="Vector_12" d="M21.9106 0H2.10059V1.52H21.9106V0Z" fill="white"/>
<path id="Vector_13" d="M5.15059 30.4688H2.10059V31.9988H5.15059V30.4688Z" fill="white"/>
<path id="Vector_14" d="M2.10031 1.51953H0.570312V30.4695H2.10031V1.51953Z" fill="white"/>
</g>
</svg>
