<svg xmlns="http://www.w3.org/2000/svg" width="32" height="32" viewBox="0 0 32 32" fill="none">
  <g clip-path="url(#clip0_1123_34345)">
    <path d="M3.80957 1.52H28.1896V3.05H26.6696V4.57H28.1896V7.62H29.7196V30.48H31.2396V6.1H29.7196V1.52H31.2396V0H3.80957V1.52Z" fill="white"/>
    <path d="M6.85957 30.48V7.61998H15.9996V6.09998H3.80957V7.61998H5.33957V30.48H3.80957V32H29.7196V30.48H6.85957Z" fill="white"/>
    <path d="M25.15 10.67H23.62V6.10005H22.1V4.57005H23.62V3.05005H16V4.57005H17.53V6.10005H19.05V21.33H20.57V19.81H22.1V18.29H23.62V19.81H25.15V21.33H26.67V6.10005H25.15V10.67Z" fill="white"/>
    <path d="M25.1496 4.56995H23.6196V6.09995H25.1496V4.56995Z" fill="white"/>
    <path d="M14.4798 3.05005H5.33984V4.57005H14.4798V3.05005Z" fill="white"/>
    <path d="M3.80955 28.95H2.28955V30.4799H3.80955V28.95Z" fill="white"/>
    <path d="M3.80955 1.52002H2.28955V3.05002H3.80955V1.52002Z" fill="white"/>
    <path d="M2.28977 6.10005H3.80977V4.57005H2.28977V3.05005H0.759766V28.9501H2.28977V6.10005Z" fill="white"/>
  </g>
  <defs>
    <clipPath id="clip0_1123_34345">
      <rect width="32" height="32" fill="white"/>
    </clipPath>
  </defs>
</svg>