<svg width="32" height="32" viewBox="0 0 32 32" fill="none" xmlns="http://www.w3.org/2000/svg">
<g id="Group">
<path id="Vector" d="M31.9997 18.2891H30.4697V30.4791H31.9997V18.2891Z" fill="white"/>
<path id="Vector_2" d="M31.9997 1.51953H30.4697V13.7095H31.9997V1.51953Z" fill="white"/>
<path id="Vector_3" d="M30.4699 16.7617H27.4199V18.2917H30.4699V16.7617Z" fill="white"/>
<path id="Vector_4" d="M30.4703 30.4805H18.2803V32.0005H30.4703V30.4805Z" fill="white"/>
<path id="Vector_5" d="M30.4699 13.7109H27.4199V15.2409H30.4699V13.7109Z" fill="white"/>
<path id="Vector_6" d="M27.4199 7.62109H25.8999V9.14109H24.3799V10.6711H25.8999V13.7111H27.4199V7.62109Z" fill="white"/>
<path id="Vector_7" d="M25.8999 22.8591V24.3791H27.4199V18.2891H25.8999V21.3291H24.3799V22.8591H25.8999Z" fill="white"/>
<path id="Vector_8" d="M24.3796 19.8086H22.8496V21.3286H24.3796V19.8086Z" fill="white"/>
<path id="Vector_9" d="M24.3796 10.6719H22.8496V12.1919H24.3796V10.6719Z" fill="white"/>
<path id="Vector_10" d="M22.8501 18.2891H21.3301V19.8091H22.8501V18.2891Z" fill="white"/>
<path id="Vector_11" d="M22.8501 12.1914H21.3301V13.7114H22.8501V12.1914Z" fill="white"/>
<path id="Vector_12" d="M22.8503 6.09031H24.3803V4.57031H18.2803V6.09031H21.3303V7.62031H22.8503V6.09031Z" fill="white"/>
<path id="Vector_13" d="M24.3803 27.4289V25.8989H22.8503V24.3789H21.3303V25.8989H18.2803V27.4289H24.3803Z" fill="white"/>
<path id="Vector_14" d="M21.3298 22.8594H19.7998V24.3794H21.3298V22.8594Z" fill="white"/>
<path id="Vector_15" d="M21.3303 16.7617H18.2803V18.2917H21.3303V16.7617Z" fill="white"/>
<path id="Vector_16" d="M21.3298 7.62109H19.7998V9.14109H21.3298V7.62109Z" fill="white"/>
<path id="Vector_17" d="M30.4703 0H18.2803V1.52H30.4703V0Z" fill="white"/>
<path id="Vector_18" d="M18.2798 21.3291V18.2891H16.7598V22.8591H19.7998V21.3291H18.2798Z" fill="white"/>
<path id="Vector_19" d="M21.3303 13.7109H18.2803V15.2409H21.3303V13.7109Z" fill="white"/>
<path id="Vector_20" d="M19.8003 9.14062H18.2803V10.6706H19.8003V9.14062Z" fill="white"/>
<path id="Vector_21" d="M18.2798 27.4297H16.7598V30.4797H18.2798V27.4297Z" fill="white"/>
<path id="Vector_22" d="M18.2798 10.6719H16.7598V13.7119H18.2798V10.6719Z" fill="white"/>
<path id="Vector_23" d="M18.2798 1.51953H16.7598V4.56953H18.2798V1.51953Z" fill="white"/>
<path id="Vector_24" d="M15.23 27.4297H13.71V30.4797H15.23V27.4297Z" fill="white"/>
<path id="Vector_25" d="M15.23 18.2891H13.71V21.3291H15.23V18.2891Z" fill="white"/>
<path id="Vector_26" d="M15.23 10.6719H13.71V13.7119H15.23V10.6719Z" fill="white"/>
<path id="Vector_27" d="M15.23 1.51953H13.71V4.56953H15.23V1.51953Z" fill="white"/>
<path id="Vector_28" d="M13.7104 21.3281H12.1904V22.8581H13.7104V21.3281Z" fill="white"/>
<path id="Vector_29" d="M13.7102 16.7617H10.6602V18.2917H13.7102V16.7617Z" fill="white"/>
<path id="Vector_30" d="M13.7104 9.14062H12.1904V10.6706H13.7104V9.14062Z" fill="white"/>
<path id="Vector_31" d="M13.7095 30.4805H1.51953V32.0005H13.7095V30.4805Z" fill="white"/>
<path id="Vector_32" d="M12.1902 22.8594H10.6602V24.3794H12.1902V22.8594Z" fill="white"/>
<path id="Vector_33" d="M13.7102 13.7109H10.6602V15.2409H13.7102V13.7109Z" fill="white"/>
<path id="Vector_34" d="M12.1902 7.62109H10.6602V9.14109H12.1902V7.62109Z" fill="white"/>
<path id="Vector_35" d="M7.61035 4.57031V6.09031H9.14035V7.62031H10.6604V6.09031H13.7104V4.57031H7.61035Z" fill="white"/>
<path id="Vector_36" d="M9.14035 25.8989H7.61035V27.4289H13.7104V25.8989H10.6604V24.3789H9.14035V25.8989Z" fill="white"/>
<path id="Vector_37" d="M10.6596 18.2891H9.13965V19.8091H10.6596V18.2891Z" fill="white"/>
<path id="Vector_38" d="M10.6596 12.1914H9.13965V13.7114H10.6596V12.1914Z" fill="white"/>
<path id="Vector_39" d="M9.14035 19.8086H7.61035V21.3286H9.14035V19.8086Z" fill="white"/>
<path id="Vector_40" d="M9.14035 10.6719H7.61035V12.1919H9.14035V10.6719Z" fill="white"/>
<path id="Vector_41" d="M6.09031 9.14109V7.62109H4.57031V13.7111H6.09031V10.6711H7.61031V9.14109H6.09031Z" fill="white"/>
<path id="Vector_42" d="M4.57031 24.3791H6.09031V22.8591H7.61031V21.3291H6.09031V18.2891H4.57031V24.3791Z" fill="white"/>
<path id="Vector_43" d="M4.56953 16.7617H1.51953V18.2917H4.56953V16.7617Z" fill="white"/>
<path id="Vector_44" d="M13.7095 0H1.51953V1.52H13.7095V0Z" fill="white"/>
<path id="Vector_45" d="M4.56953 13.7109H1.51953V15.2409H4.56953V13.7109Z" fill="white"/>
<path id="Vector_46" d="M1.52 18.2891H0V30.4791H1.52V18.2891Z" fill="white"/>
<path id="Vector_47" d="M1.52 1.51953H0V13.7095H1.52V1.51953Z" fill="white"/>
</g>
</svg>
