<svg xmlns="http://www.w3.org/2000/svg" width="32" height="32" viewBox="0 0 32 32" fill="none">
  <path d="M20.5649 9.14H22.0949V10.67H26.6649V9.14H28.1849V7.62H26.6649V4.57H25.1349V3.05H26.6649V4.57H28.1849V7.62H29.7149V3.05H28.1849V1.52H26.6649V0H22.0949V1.52H20.5649V3.05H19.0449V7.62H20.5649V9.14Z" fill="white"/>
  <path d="M19.0449 28.95H20.5649V30.48H22.0949V32H26.6649V30.48H28.1849V28.95H26.6649V25.9H25.1349V24.38H26.6649V25.9H28.1849V28.95H29.7149V24.38H28.1849V22.86H26.6649V21.33H22.0949V22.86H20.5649V24.38H19.0449V28.95Z" fill="white"/>
  <path d="M19.0454 22.86H17.5254V24.38H19.0454V22.86Z" fill="white"/>
  <path d="M19.0454 7.62H17.5254V9.14H19.0454V7.62Z" fill="white"/>
  <path d="M17.5251 21.33H15.9951V22.86H17.5251V21.33Z" fill="white"/>
  <path d="M17.5251 9.14001H15.9951V10.67H17.5251V9.14001Z" fill="white"/>
  <path d="M15.9951 19.8101H14.4751V21.3301H15.9951V19.8101Z" fill="white"/>
  <path d="M15.9951 10.67H14.4751V12.19H15.9951V10.67Z" fill="white"/>
  <path d="M14.4753 18.29H12.9453V19.81H14.4753V18.29Z" fill="white"/>
  <path d="M14.4753 12.1899H12.9453V13.7099H14.4753V12.1899Z" fill="white"/>
  <path d="M5.33516 10.67V12.19H3.80516V13.71H2.28516V18.29H3.80516V19.81H5.33516V21.33H9.90516V19.81H11.4252V18.29H12.9452V13.71H11.4252V12.19H9.90516V10.67H5.33516Z" fill="white"/>
</svg>