<svg xmlns="http://www.w3.org/2000/svg" width="32" height="32" viewBox="0 0 32 32" fill="none">
  <g clip-path="url(#clip0_1123_34285)">
    <path d="M30.4701 9.14H32.0001V0H22.8501V1.52H28.9501V3.05H30.4701V9.14Z" fill="white"/>
    <path d="M22.8501 30.48V32H32.0001V22.86H30.4701V28.95H28.9501V30.48H22.8501Z" fill="white"/>
    <path d="M28.9499 27.4301H27.4199V28.9501H28.9499V27.4301Z" fill="white"/>
    <path d="M28.9499 3.05005H27.4199V4.57005H28.9499V3.05005Z" fill="white"/>
    <path d="M27.4199 25.9H25.8999V27.43H27.4199V25.9Z" fill="white"/>
    <path d="M27.4199 4.56995H25.8999V6.08995H27.4199V4.56995Z" fill="white"/>
    <path d="M25.8999 24.38H24.3799V25.9H25.8999V24.38Z" fill="white"/>
    <path d="M25.8999 6.08997H24.3799V7.61997H25.8999V6.08997Z" fill="white"/>
    <path d="M24.3801 22.86H22.8501V24.38H24.3801V22.86Z" fill="white"/>
    <path d="M24.3801 7.62H22.8501V9.14H24.3801V7.62Z" fill="white"/>
    <path d="M22.8501 21.33H21.3301V22.86H22.8501V21.33Z" fill="white"/>
    <path d="M22.8501 9.14001H21.3301V10.67H22.8501V9.14001Z" fill="white"/>
    <path d="M21.3298 19.8101H19.7998V21.3301H21.3298V19.8101Z" fill="white"/>
    <path d="M21.3298 10.67H19.7998V12.19H21.3298V10.67Z" fill="white"/>
    <path d="M19.7998 18.29H18.2798V19.81H19.7998V18.29Z" fill="white"/>
    <path d="M19.7998 12.1899H18.2798V13.7099H19.7998V12.1899Z" fill="white"/>
    <path d="M18.2798 16.76H16.7598V18.29H18.2798V16.76Z" fill="white"/>
    <path d="M18.2798 13.71H16.7598V15.24H18.2798V13.71Z" fill="white"/>
    <path d="M16.76 15.24H15.23V16.76H16.76V15.24Z" fill="white"/>
    <path d="M15.23 16.76H13.71V18.29H15.23V16.76Z" fill="white"/>
    <path d="M15.23 13.71H13.71V15.24H15.23V13.71Z" fill="white"/>
    <path d="M13.7099 18.29H12.1899V19.81H13.7099V18.29Z" fill="white"/>
    <path d="M13.7099 12.1899H12.1899V13.7099H13.7099V12.1899Z" fill="white"/>
    <path d="M12.1902 19.8101H10.6602V21.3301H12.1902V19.8101Z" fill="white"/>
    <path d="M12.1902 10.67H10.6602V12.19H12.1902V10.67Z" fill="white"/>
    <path d="M10.6601 21.33H9.14014V22.86H10.6601V21.33Z" fill="white"/>
    <path d="M10.6601 9.14001H9.14014V10.67H10.6601V9.14001Z" fill="white"/>
    <path d="M9.13986 22.86H7.60986V24.38H9.13986V22.86Z" fill="white"/>
    <path d="M9.13986 7.62H7.60986V9.14H9.13986V7.62Z" fill="white"/>
    <path d="M7.60984 24.38H6.08984V25.9H7.60984V24.38Z" fill="white"/>
    <path d="M7.60984 6.08997H6.08984V7.61997H7.60984V6.08997Z" fill="white"/>
    <path d="M6.08982 25.9H4.56982V27.43H6.08982V25.9Z" fill="white"/>
    <path d="M6.08982 4.56995H4.56982V6.08995H6.08982V4.56995Z" fill="white"/>
    <path d="M4.57004 27.4301H3.04004V28.9501H4.57004V27.4301Z" fill="white"/>
    <path d="M4.57004 3.05005H3.04004V4.57005H4.57004V3.05005Z" fill="white"/>
    <path d="M9.14 1.52V0H0V9.14H1.52V3.05H3.04V1.52H9.14Z" fill="white"/>
    <path d="M9.14 30.48H3.04V28.95H1.52V22.86H0V32H9.14V30.48Z" fill="white"/>
  </g>
  <defs>
    <clipPath id="clip0_1123_34285">
      <rect width="32" height="32" fill="white"/>
    </clipPath>
  </defs>
</svg>