<svg width="24" height="32" viewBox="0 0 24 32" fill="none" xmlns="http://www.w3.org/2000/svg">
<g id="Group">
<path id="Vector" d="M23.4302 13.7109H21.9102V28.9509H23.4302V13.7109Z" fill="white"/>
<path id="Vector_2" d="M21.9099 28.9492H20.3799V30.4792H21.9099V28.9492Z" fill="white"/>
<path id="Vector_3" d="M21.9099 12.1914H20.3799V13.7114H21.9099V12.1914Z" fill="white"/>
<path id="Vector_4" d="M20.3798 10.6719H17.3398V12.1919H20.3798V10.6719Z" fill="white"/>
<path id="Vector_5" d="M20.3801 30.4805H3.62012V32.0005H20.3801V30.4805Z" fill="white"/>
<path id="Vector_6" d="M11.2404 0V1.52H9.72039V3.05H8.19039V4.57H6.67039V6.09H5.15039V7.62H9.72039V16.76H14.2904V7.62H18.8604V6.09H17.3404V4.57H15.8104V3.05H14.2904V1.52H12.7604V0H11.2404Z" fill="white"/>
<path id="Vector_7" d="M6.67012 10.6719H3.62012V12.1919H6.67012V10.6719Z" fill="white"/>
<path id="Vector_8" d="M3.62059 28.9492H2.10059V30.4792H3.62059V28.9492Z" fill="white"/>
<path id="Vector_9" d="M3.62059 12.1914H2.10059V13.7114H3.62059V12.1914Z" fill="white"/>
<path id="Vector_10" d="M2.10031 13.7109H0.570312V28.9509H2.10031V13.7109Z" fill="white"/>
</g>
</svg>
