<svg width="32" height="32" viewBox="0 0 32 32" fill="none" xmlns="http://www.w3.org/2000/svg">
<g id="Group">
<path id="Vector" d="M32.0002 28.9492H28.9502V30.4792H32.0002V28.9492Z" fill="white"/>
<path id="Vector_2" d="M28.9497 30.4805H27.4297V32.0005H28.9497V30.4805Z" fill="white"/>
<path id="Vector_3" d="M27.4304 19.8083H25.9004V21.3283H27.4304V22.8583H28.9504V15.2383H27.4304V19.8083Z" fill="white"/>
<path id="Vector_4" d="M27.4299 28.9492H24.3799V30.4792H27.4299V28.9492Z" fill="white"/>
<path id="Vector_5" d="M27.4304 13.7188H25.9004V15.2387H27.4304V13.7188Z" fill="white"/>
<path id="Vector_6" d="M24.3801 27.4297H21.3301V28.9497H24.3801V27.4297Z" fill="white"/>
<path id="Vector_7" d="M22.8604 21.3311H24.3804V19.8111H25.9004V18.2911H24.3804V13.7211H25.9004V12.1911H24.3804V7.62109H22.8604V21.3311Z" fill="white"/>
<path id="Vector_8" d="M21.3296 30.4805H19.8096V32.0005H21.3296V30.4805Z" fill="white"/>
<path id="Vector_9" d="M21.3296 18.2891H19.8096V19.8091H21.3296V18.2891Z" fill="white"/>
<path id="Vector_10" d="M21.3296 15.2383H19.8096V16.7583H21.3296V15.2383Z" fill="white"/>
<path id="Vector_11" d="M19.8103 27.4297H18.2803V30.4797H19.8103V27.4297Z" fill="white"/>
<path id="Vector_12" d="M19.81 24.3789H13.71V25.9089H19.81V24.3789Z" fill="white"/>
<path id="Vector_13" d="M19.8103 1.51953H18.2803V3.04953H19.8103V1.51953Z" fill="white"/>
<path id="Vector_14" d="M18.2802 0H15.2402V1.52H18.2802V0Z" fill="white"/>
<path id="Vector_15" d="M19.81 9.14109H18.28V7.62109H15.24V9.14109H16.76V10.6711H15.24V9.14109H13.71V12.1911H15.24V13.7211H18.28V12.1911H19.81V9.14109Z" fill="white"/>
<path id="Vector_16" d="M15.24 27.4297H13.71V30.4797H15.24V27.4297Z" fill="white"/>
<path id="Vector_17" d="M10.6602 22.8581H12.1902V24.3781H13.7102V22.8581H19.8102V24.3781H21.3302V22.8581H22.8602V21.3281H10.6602V22.8581Z" fill="white"/>
<path id="Vector_18" d="M15.24 1.51953H13.71V3.04953H15.24V1.51953Z" fill="white"/>
<path id="Vector_19" d="M13.7104 30.4805H12.1904V32.0005H13.7104V30.4805Z" fill="white"/>
<path id="Vector_20" d="M12.1896 27.4297H9.13965V28.9497H12.1896V27.4297Z" fill="white"/>
<path id="Vector_21" d="M13.7102 4.57078V3.05078H12.1902V4.57078H10.6602V7.62078H12.1902V6.10078H21.3302V7.62078H22.8602V4.57078H21.3302V3.05078H19.8102V4.57078H13.7102Z" fill="white"/>
<path id="Vector_22" d="M10.6601 7.62109H9.14012V12.1911H7.62012V13.7211H9.14012V18.2911H7.62012V19.8111H9.14012V21.3311H10.6601V7.62109Z" fill="white"/>
<path id="Vector_23" d="M9.13984 28.9492H6.08984V30.4792H9.13984V28.9492Z" fill="white"/>
<path id="Vector_24" d="M7.61984 13.7188H6.08984V15.2387H7.61984V13.7188Z" fill="white"/>
<path id="Vector_25" d="M6.09031 30.4805H4.57031V32.0005H6.09031V30.4805Z" fill="white"/>
<path id="Vector_26" d="M6.09031 15.2383H4.57031V22.8583H6.09031V21.3283H7.62031V19.8083H6.09031V15.2383Z" fill="white"/>
<path id="Vector_27" d="M4.56953 28.9492H1.51953V30.4792H4.56953V28.9492Z" fill="white"/>
<path id="Vector_28" d="M1.52 30.4805H0V32.0005H1.52V30.4805Z" fill="white"/>
</g>
</svg>
