<svg width="24" height="24" viewBox="0 0 24 24" fill="none" xmlns="http://www.w3.org/2000/svg">
<g id="Group">
<path id="Vector" d="M22.8604 1.14H21.7204V0H19.4329V1.14H14.8579V2.2875H13.7179V3.4275H12.5779V4.575H11.4304V5.715H10.2904V6.855H9.15039V8.0025H11.4304V6.855H12.5779V5.715H13.7179V4.575H14.8579V3.4275H16.0054V4.575H14.8579V5.715H16.0054V6.855H17.1454V8.0025H18.2929V9.1425H19.4329V8.0025H20.5729V6.855H21.7204V5.715H22.8604V4.575H24.0004V2.2875H22.8604V1.14Z" fill="#BFBFBF"/>
<path id="Vector_2" d="M18.292 9.14062H17.1445V10.2881H18.292V9.14062Z" fill="#BFBFBF"/>
<path id="Vector_3" d="M17.1449 10.2891H16.0049V11.4291H17.1449V10.2891Z" fill="#BFBFBF"/>
<path id="Vector_4" d="M16.0049 11.4297H14.8574V12.5697H16.0049V11.4297Z" fill="#BFBFBF"/>
<path id="Vector_5" d="M14.8578 12.5703H13.7178V13.7178H14.8578V12.5703Z" fill="#BFBFBF"/>
<path id="Vector_6" d="M14.8578 5.71484H13.7178V6.85484H14.8578V5.71484Z" fill="#BFBFBF"/>
<path id="Vector_7" d="M13.7171 13.7188H12.5771V14.8587H13.7171V13.7188Z" fill="#BFBFBF"/>
<path id="Vector_8" d="M13.7171 6.85547H12.5771V8.00297H13.7171V6.85547Z" fill="#BFBFBF"/>
<path id="Vector_9" d="M12.5772 14.8594H11.4297V15.9994H12.5772V14.8594Z" fill="#BFBFBF"/>
<path id="Vector_10" d="M12.5772 8.00391H11.4297V9.14391H12.5772V8.00391Z" fill="#BFBFBF"/>
<path id="Vector_11" d="M11.43 15.9961H10.29V17.1436H11.43V15.9961Z" fill="#BFBFBF"/>
<path id="Vector_12" d="M11.43 9.14062H10.29V10.2881H11.43V9.14062Z" fill="#BFBFBF"/>
<path id="Vector_13" d="M10.2904 10.2891H9.15039V11.4291H10.2904V10.2891Z" fill="#BFBFBF"/>
<path id="Vector_14" d="M8.00195 21.712H9.14945V18.2845H10.2895V17.1445H8.00195V21.712Z" fill="#BFBFBF"/>
<path id="Vector_15" d="M9.14945 11.4297H8.00195V12.5697H9.14945V11.4297Z" fill="#BFBFBF"/>
<path id="Vector_16" d="M8.00231 15.9961H6.8623V17.1436H8.00231V15.9961Z" fill="#BFBFBF"/>
<path id="Vector_17" d="M8.00231 12.5703H6.8623V13.7178H8.00231V12.5703Z" fill="#BFBFBF"/>
<path id="Vector_18" d="M8.00234 21.7109H5.71484V22.8584H8.00234V21.7109Z" fill="#BFBFBF"/>
<path id="Vector_19" d="M5.71555 18.2852H3.43555V20.5727H5.71555V18.2852Z" fill="#BFBFBF"/>
<path id="Vector_20" d="M2.2875 22.8602V21.7127H1.1475V18.2852H0V24.0002H5.715V22.8602H2.2875Z" fill="#BFBFBF"/>
<path id="Vector_21" d="M6.86211 15.9987V13.7188H5.71461V14.8587H2.28711V15.9987H6.86211Z" fill="#BFBFBF"/>
<path id="Vector_22" d="M3.43461 20.5742H2.28711V21.7142H3.43461V20.5742Z" fill="#BFBFBF"/>
<path id="Vector_23" d="M2.28746 15.9961H1.14746V18.2836H2.28746V15.9961Z" fill="#BFBFBF"/>
</g>
</svg>
