<svg width="32" height="26" viewBox="0 0 32 26" fill="none" xmlns="http://www.w3.org/2000/svg">
<g id="Group">
<path id="Vector" d="M22.1002 12.2411V13.7611H19.0502V15.2911H9.91016V16.8111H14.4802V18.3311H16.0002V19.8611H17.5302V21.3811H23.6202V22.9011H25.1502V24.4311H26.6702V25.9511H28.1902V19.8611H29.7202V18.3311H31.2402V12.2411H29.7202V10.7111H28.1902V9.19109H25.1502V4.62109H23.6202V12.2411H22.1002Z" fill="white"/>
<path id="Vector_2" d="M23.6196 3.08984H22.0996V4.61984H23.6196V3.08984Z" fill="white"/>
<path id="Vector_3" d="M20.5693 7.67188H17.5293V10.7119H20.5693V7.67188Z" fill="white"/>
<path id="Vector_4" d="M22.0998 1.57031H19.0498V3.09031H22.0998V1.57031Z" fill="white"/>
<path id="Vector_5" d="M14.4797 7.67188H11.4297V10.7119H14.4797V7.67188Z" fill="white"/>
<path id="Vector_6" d="M9.90988 16.8125H8.37988V18.3325H9.90988V16.8125Z" fill="white"/>
<path id="Vector_7" d="M19.0494 0.0507812H6.85938V1.57078H19.0494V0.0507812Z" fill="white"/>
<path id="Vector_8" d="M6.85984 15.2891H5.33984V21.3791H6.85984V19.8591H8.37984V18.3291H6.85984V15.2891Z" fill="white"/>
<path id="Vector_9" d="M8.37984 7.67188H5.33984V10.7119H8.37984V7.67188Z" fill="white"/>
<path id="Vector_10" d="M6.85957 1.57031H3.80957V3.09031H6.85957V1.57031Z" fill="white"/>
<path id="Vector_11" d="M5.33957 13.7617H3.80957V15.2917H5.33957V13.7617Z" fill="white"/>
<path id="Vector_12" d="M3.81004 12.2422H2.29004V13.7622H3.81004V12.2422Z" fill="white"/>
<path id="Vector_13" d="M3.81004 3.08984H2.29004V4.61984H3.81004V3.08984Z" fill="white"/>
<path id="Vector_14" d="M2.28977 4.62109H0.759766V12.2411H2.28977V4.62109Z" fill="white"/>
</g>
</svg>
