<svg width="22" height="24" viewBox="0 0 22 24" fill="none" xmlns="http://www.w3.org/2000/svg">
<g id="Group">
<path id="Vector" d="M18.4286 6.28594V18.8559H19.5761V6.28594H21.8561V5.14594H20.7161V3.99844H16.1411V1.71094H15.0011V3.99844H6.99856V1.71094H5.85856V3.99844H1.29105V5.14594H0.143555V6.28594H2.43105V18.8559H3.57105V6.28594H18.4286Z" fill="white"/>
<path id="Vector_2" d="M18.4291 18.8555H17.2891V22.283H18.4291V18.8555Z" fill="white"/>
<path id="Vector_3" d="M17.2887 22.2812H4.71875V23.4288H17.2887V22.2812Z" fill="white"/>
<path id="Vector_4" d="M16.141 8.57422H15.001V17.7167H16.141V8.57422Z" fill="white"/>
<path id="Vector_5" d="M15.0013 17.7148H13.8613V19.9948H15.0013V17.7148Z" fill="white"/>
<path id="Vector_6" d="M11.5736 8.57422H10.4336V19.9967H11.5736V8.57422Z" fill="white"/>
<path id="Vector_7" d="M15.0015 0.570312H6.99902V1.71031H15.0015V0.570312Z" fill="white"/>
<path id="Vector_8" d="M8.14652 17.7148H6.99902V19.9948H8.14652V17.7148Z" fill="white"/>
<path id="Vector_9" d="M6.9984 8.57422H5.8584V17.7167H6.9984V8.57422Z" fill="white"/>
<path id="Vector_10" d="M4.71879 18.8555H3.57129V22.283H4.71879V18.8555Z" fill="white"/>
</g>
</svg>
