<svg xmlns="http://www.w3.org/2000/svg" width="12" height="12" viewBox="0 0 12 12" fill="none">
  <path d="M12.0001 4.57129H11.4301V5.14129H12.0001V4.57129Z" fill="#05F500"/>
  <path d="M11.43 5.14124H10.8562V5.71124H11.43V5.14124Z" fill="#05F500"/>
  <path d="M10.8563 10.2863H10.2863V11.4263H10.8563V10.2863Z" fill="#05F500"/>
  <path d="M10.2863 9.14246H9.71252V10.2862H10.2863V9.14246Z" fill="#05F500"/>
  <path d="M10.8563 5.7113H9.71252V6.28505H10.8563V5.7113Z" fill="#05F500"/>
  <path d="M10.2862 11.4263H9.14246V12H10.2862V11.4263Z" fill="#05F500"/>
  <path d="M9.71246 7.99878H9.14246V9.14253H9.71246V7.99878Z" fill="#05F500"/>
  <path d="M9.71246 6.28503H9.14246V6.85503H9.71246V6.28503Z" fill="#05F500"/>
  <path d="M9.14251 10.8562H8.57251V11.4262H9.14251V10.8562Z" fill="#05F500"/>
  <path d="M9.14251 6.85498H8.57251V7.99873H9.14251V6.85498Z" fill="#05F500"/>
  <path d="M8.57246 10.2863H7.42871V10.8563H8.57246V10.2863Z" fill="#05F500"/>
  <path d="M11.43 3.99756H7.99878V4.57131H11.43V3.99756Z" fill="#05F500"/>
  <path d="M7.99871 2.85754H7.42871V3.99754H7.99871V2.85754Z" fill="#05F500"/>
  <path d="M7.42876 9.71252H6.85876V10.2863H7.42876V9.71252Z" fill="#05F500"/>
  <path d="M7.42876 1.71375H6.85876V2.8575H7.42876V1.71375Z" fill="#05F500"/>
  <path d="M6.85878 9.14246H6.28503V9.71246H6.85878V9.14246Z" fill="#05F500"/>
  <path d="M6.85878 0.569946H6.28503V1.7137H6.85878V0.569946Z" fill="#05F500"/>
  <path d="M6.28497 8.56873H5.71497V9.14248H6.28497V8.56873Z" fill="#05F500"/>
  <path d="M6.28497 0H5.71497V0.57H6.28497V0Z" fill="#05F500"/>
  <path d="M5.71499 9.14246H5.14124V9.71246H5.71499V9.14246Z" fill="#05F500"/>
  <path d="M5.71499 0.569946H5.14124V1.7137H5.71499V0.569946Z" fill="#05F500"/>
  <path d="M5.14129 9.71252H4.57129V10.2863H5.14129V9.71252Z" fill="#05F500"/>
  <path d="M5.14129 1.71375H4.57129V2.8575H5.14129V1.71375Z" fill="#05F500"/>
  <path d="M4.57122 2.85754H4.00122V3.99754H4.57122V2.85754Z" fill="#05F500"/>
  <path d="M4.57124 10.2863H3.42749V10.8563H4.57124V10.2863Z" fill="#05F500"/>
  <path d="M3.42754 10.8562H2.85754V11.4262H3.42754V10.8562Z" fill="#05F500"/>
  <path d="M3.42754 6.85498H2.85754V7.99873H3.42754V6.85498Z" fill="#05F500"/>
  <path d="M2.85748 7.99878H2.28748V9.14253H2.85748V7.99878Z" fill="#05F500"/>
  <path d="M2.85748 6.28503H2.28748V6.85503H2.85748V6.28503Z" fill="#05F500"/>
  <path d="M2.8575 11.4263H1.71375V12H2.8575V11.4263Z" fill="#05F500"/>
  <path d="M2.2875 9.14246H1.71375V10.2862H2.2875V9.14246Z" fill="#05F500"/>
  <path d="M2.28755 5.7113H1.1438V6.28505H2.28755V5.7113Z" fill="#05F500"/>
  <path d="M1.7138 10.2863H1.1438V11.4263H1.7138V10.2863Z" fill="#05F500"/>
  <path d="M4.0012 3.99756H0.569946V4.57131H4.0012V3.99756Z" fill="#05F500"/>
  <path d="M1.1437 5.14124H0.569946V5.71124H1.1437V5.14124Z" fill="#05F500"/>
  <path d="M0.57 4.57129H0V5.14129H0.57V4.57129Z" fill="#05F500"/>
</svg>