<svg xmlns="http://www.w3.org/2000/svg" width="24" height="24" viewBox="0 0 24 24" fill="none">
  <path d="M24.0004 9.14246H22.8604V10.2825H24.0004V9.14246Z" fill="#05F500"/>
  <path d="M22.8604 10.2825H21.7129V11.4225H22.8604V10.2825Z" fill="#05F500"/>
  <path d="M21.7123 20.5725H20.5723V22.8525H21.7123V20.5725Z" fill="#05F500"/>
  <path d="M20.5723 18.285H19.4248V20.5725H20.5723V18.285Z" fill="#05F500"/>
  <path d="M21.7123 11.4225H19.4248V12.57H21.7123V11.4225Z" fill="#05F500"/>
  <path d="M20.5727 22.8525H18.2852V24H20.5727V22.8525Z" fill="#05F500"/>
  <path d="M19.4252 15.9976H18.2852V18.2851H19.4252V15.9976Z" fill="#05F500"/>
  <path d="M19.4252 12.5699H18.2852V13.7099H19.4252V12.5699Z" fill="#05F500"/>
  <path d="M18.2845 21.7125H17.1445V22.8525H18.2845V21.7125Z" fill="#05F500"/>
  <path d="M18.2845 13.71H17.1445V15.9975H18.2845V13.71Z" fill="#05F500"/>
  <path d="M17.1449 20.5725H14.8574V21.7125H17.1449V20.5725Z" fill="#05F500"/>
  <path d="M22.8596 7.995H15.9971V9.14249H22.8596V7.995Z" fill="#05F500"/>
  <path d="M15.9974 5.71497H14.8574V7.99497H15.9974V5.71497Z" fill="#05F500"/>
  <path d="M14.8578 19.425H13.7178V20.5725H14.8578V19.425Z" fill="#05F500"/>
  <path d="M14.8578 3.42749H13.7178V5.71499H14.8578V3.42749Z" fill="#05F500"/>
  <path d="M13.7178 18.285H12.5703V19.425H13.7178V18.285Z" fill="#05F500"/>
  <path d="M13.7178 1.14001H12.5703V3.42752H13.7178V1.14001Z" fill="#05F500"/>
  <path d="M12.5697 17.1375H11.4297V18.285H12.5697V17.1375Z" fill="#05F500"/>
  <path d="M12.5697 0H11.4297V1.14H12.5697V0Z" fill="#05F500"/>
  <path d="M11.4297 18.285H10.2822V19.425H11.4297V18.285Z" fill="#05F500"/>
  <path d="M11.4297 1.14001H10.2822V3.42752H11.4297V1.14001Z" fill="#05F500"/>
  <path d="M10.2826 19.425H9.14258V20.5725H10.2826V19.425Z" fill="#05F500"/>
  <path d="M10.2826 3.42749H9.14258V5.71499H10.2826V3.42749Z" fill="#05F500"/>
  <path d="M9.14293 5.71497H8.00293V7.99497H9.14293V5.71497Z" fill="#05F500"/>
  <path d="M9.14297 20.5725H6.85547V21.7125H9.14297V20.5725Z" fill="#05F500"/>
  <path d="M6.85484 21.7125H5.71484V22.8525H6.85484V21.7125Z" fill="#05F500"/>
  <path d="M6.85484 13.71H5.71484V15.9975H6.85484V13.71Z" fill="#05F500"/>
  <path d="M5.7152 15.9976H4.5752V18.2851H5.7152V15.9976Z" fill="#05F500"/>
  <path d="M5.7152 12.5699H4.5752V13.7099H5.7152V12.5699Z" fill="#05F500"/>
  <path d="M5.71523 22.8525H3.42773V24H5.71523V22.8525Z" fill="#05F500"/>
  <path d="M4.57523 18.285H3.42773V20.5725H4.57523V18.285Z" fill="#05F500"/>
  <path d="M4.57461 11.4225H2.28711V12.57H4.57461V11.4225Z" fill="#05F500"/>
  <path d="M3.42711 20.5725H2.28711V22.8525H3.42711V20.5725Z" fill="#05F500"/>
  <path d="M8.00215 7.995H1.13965V9.14249H8.00215V7.995Z" fill="#05F500"/>
  <path d="M2.28715 10.2825H1.13965V11.4225H2.28715V10.2825Z" fill="#05F500"/>
  <path d="M1.14 9.14246H0V10.2825H1.14V9.14246Z" fill="#05F500"/>
</svg>