<svg width="32" height="32" viewBox="0 0 32 32" fill="none" xmlns="http://www.w3.org/2000/svg">
<g clip-path="url(#clip0_1120_798)">
<path d="M16.7603 19.81H18.2803V21.33H21.3303V22.86H22.8503V24.38H21.3303V25.9H18.2803V27.43H16.7603V28.95H18.2803V30.48H21.3303V32H25.9003V30.48H28.9503V28.95H30.4703V25.9H32.0003V21.33H30.4703V18.29H28.9503V16.76H25.9003V15.24H21.3303V16.76H18.2803V18.29H16.7603V19.81ZM24.3803 19.81H25.9003V21.33H24.3803V19.81Z" fill="white"/>
<path d="M30.47 6.09H28.95V7.62H30.47V6.09Z" fill="white"/>
<path d="M25.9 10.67H24.38V12.19H25.9V10.67Z" fill="white"/>
<path d="M25.9 6.09H24.38V7.62H25.9V6.09Z" fill="white"/>
<path d="M25.9 1.52H24.38V3.05H25.9V1.52Z" fill="white"/>
<path d="M21.33 6.09H19.8V7.62H21.33V6.09Z" fill="white"/>
<path d="M16.76 22.86H15.23V24.38H16.76V22.86Z" fill="white"/>
<path d="M16.76 6.09H15.23V13.71H16.76V6.09Z" fill="white"/>
<path d="M15.23 13.71H13.71V15.24H15.23V13.71Z" fill="white"/>
<path d="M15.23 3.05H13.71V6.09H15.23V3.05Z" fill="white"/>
<path d="M13.71 12.19H12.19V13.71H13.71V12.19Z" fill="white"/>
<path d="M13.71 1.52H12.19V3.05H13.71V1.52Z" fill="white"/>
<path d="M12.19 22.86H10.66V24.38H12.19V22.86Z" fill="white"/>
<path d="M12.19 13.71H10.66V15.24H12.19V13.71Z" fill="white"/>
<path d="M12.19 6.09H10.66V7.62H12.19V6.09Z" fill="white"/>
<path d="M10.66 12.19H9.14001V13.71H10.66V12.19Z" fill="white"/>
<path d="M9.14005 13.71H7.61005V15.24H9.14005V13.71Z" fill="white"/>
<path d="M9.14005 6.09H7.61005V7.62H9.14005V6.09Z" fill="white"/>
<path d="M7.61003 27.43H6.09003V28.95H7.61003V27.43Z" fill="white"/>
<path d="M7.61003 22.86H6.09003V24.38H7.61003V22.86Z" fill="white"/>
<path d="M7.61003 18.29H6.09003V19.81H7.61003V18.29Z" fill="white"/>
<path d="M7.61003 12.19H6.09003V13.71H7.61003V12.19Z" fill="white"/>
<path d="M12.19 0H4.57001V1.52H12.19V0Z" fill="white"/>
<path d="M6.09001 13.71H4.57001V15.24H6.09001V13.71Z" fill="white"/>
<path d="M4.57004 12.19H3.04004V13.71H4.57004V12.19Z" fill="white"/>
<path d="M4.57004 1.52H3.04004V3.05H4.57004V1.52Z" fill="white"/>
<path d="M3.04002 22.86H1.52002V24.38H3.04002V22.86Z" fill="white"/>
<path d="M3.04002 13.71H1.52002V15.24H3.04002V13.71Z" fill="white"/>
<path d="M3.04002 3.05H1.52002V6.09H3.04002V3.05Z" fill="white"/>
<path d="M1.52 6.09H0V13.71H1.52V6.09Z" fill="white"/>
</g>
<defs>
<clipPath id="clip0_1120_798">
<rect width="32" height="32" fill="white"/>
</clipPath>
</defs>
</svg>
