<svg width="32" height="32" viewBox="0 0 32 32" fill="none" xmlns="http://www.w3.org/2000/svg">
<g clip-path="url(#clip0_1120_637)">
<path d="M32 9.15002H30.47V10.67H32V9.15002Z" fill="white"/>
<path d="M32 4.56995H30.47V6.09995H32V4.56995Z" fill="white"/>
<path d="M32 0H30.47V1.53H32V0Z" fill="white"/>
<path d="M30.47 13.72H28.95V15.24H30.47V13.72Z" fill="white"/>
<path d="M30.47 6.09998H28.95V7.61998H30.47V6.09998Z" fill="white"/>
<path d="M30.47 1.53003H28.95V3.05003H30.47V1.53003Z" fill="white"/>
<path d="M28.95 15.24H27.43V16.77H28.95V15.24Z" fill="white"/>
<path d="M28.95 7.62H27.43V9.14999H28.95V7.62Z" fill="white"/>
<path d="M28.95 3.05005H27.43V4.57005H28.95V3.05005Z" fill="white"/>
<path d="M27.43 16.77H25.9V19.81H27.43V16.77Z" fill="white"/>
<path d="M27.43 10.67H25.9V12.19H27.43V10.67Z" fill="white"/>
<path d="M27.43 4.56995H25.9V6.09995H27.43V4.56995Z" fill="white"/>
<path d="M27.43 0H25.9V1.53H27.43V0Z" fill="white"/>
<path d="M25.9 19.8101H24.38V22.8601H25.9V19.8101Z" fill="white"/>
<path d="M25.9 12.1899H24.38V13.7199H25.9V12.1899Z" fill="white"/>
<path d="M25.9 6.09998H24.38V7.61998H25.9V6.09998Z" fill="white"/>
<path d="M25.9 1.53003H24.38V3.05003H25.9V1.53003Z" fill="white"/>
<path d="M24.38 22.86H22.85V25.91H24.38V22.86Z" fill="white"/>
<path d="M24.38 3.05005H22.85V4.57005H24.38V3.05005Z" fill="white"/>
<path d="M22.85 15.24H21.33V16.77H22.85V15.24Z" fill="white"/>
<path d="M22.85 9.15002H21.33V10.67H22.85V9.15002Z" fill="white"/>
<path d="M22.85 0H21.33V1.53H22.85V0Z" fill="white"/>
<path d="M22.85 25.91H19.81V27.43H22.85V25.91Z" fill="white"/>
<path d="M21.33 4.56995H19.81V6.09995H21.33V4.56995Z" fill="white"/>
<path d="M21.33 1.53003H19.81V3.05003H21.33V1.53003Z" fill="white"/>
<path d="M19.81 27.4301H18.28V28.9601H19.81V27.4301Z" fill="white"/>
<path d="M19.81 12.1899H18.28V13.7199H19.81V12.1899Z" fill="white"/>
<path d="M18.28 7.62H16.76V9.14999H18.28V7.62Z" fill="white"/>
<path d="M18.28 1.53003H16.76V3.05003H18.28V1.53003Z" fill="white"/>
<path d="M18.28 28.96H15.24V30.48H18.28V28.96Z" fill="white"/>
<path d="M16.76 9.15002H15.24V10.67H16.76V9.15002Z" fill="white"/>
<path d="M16.76 3.05005H13.71V4.57005H16.76V3.05005Z" fill="white"/>
<path d="M15.24 30.48H9.14001V32H15.24V30.48Z" fill="white"/>
<path d="M13.71 4.56995H12.19V6.09995H13.71V4.56995Z" fill="white"/>
<path d="M12.19 6.09998H9.14001V7.61998H12.19V6.09998Z" fill="white"/>
<path d="M15.24 27.4299V25.9099H16.76V24.3799H18.28V22.8599H19.81V16.7699H18.28V15.2399H16.76V13.7199H15.24V12.1899H9.14001V13.7199H7.62001V15.2399H6.09001V16.7699H4.57001V22.8599H6.09001V24.3799H7.62001V25.9099H9.14001V27.4299H15.24ZM12.19 15.2399H15.24V16.7699H16.76V18.2899H18.28V21.3399H16.76V18.2899H15.24V16.7699H12.19V15.2399Z" fill="white"/>
<path d="M9.14001 28.96H4.57001V30.48H9.14001V28.96Z" fill="white"/>
<path d="M9.14003 7.62H6.09003V9.14999H9.14003V7.62Z" fill="white"/>
<path d="M6.09001 9.15002H4.57001V10.67H6.09001V9.15002Z" fill="white"/>
<path d="M4.56999 27.4301H3.04999V28.9601H4.56999V27.4301Z" fill="white"/>
<path d="M4.56999 10.67H3.04999V12.19H4.56999V10.67Z" fill="white"/>
<path d="M3.05002 24.38H1.52002V27.43H3.05002V24.38Z" fill="white"/>
<path d="M3.05002 12.1899H1.52002V15.2399H3.05002V12.1899Z" fill="white"/>
<path d="M1.52 15.24H0V24.38H1.52V15.24Z" fill="white"/>
</g>
<defs>
<clipPath id="clip0_1120_637">
<rect width="32" height="32" fill="white"/>
</clipPath>
</defs>
</svg>
