<svg width="32" height="32" viewBox="0 0 32 32" fill="none" xmlns="http://www.w3.org/2000/svg">
<path d="M32 11.43H25.9V12.95H32V11.43Z" fill="white"/>
<path d="M32 14.48H28.95V16H32V14.48Z" fill="white"/>
<path d="M9.14 22.1H16.76V23.62H24.38V20.57H28.95V17.53H27.43V19.05H1.52V17.53H0V20.57H9.14V22.1Z" fill="white"/>
<path d="M27.43 16H24.38V17.53H27.43V16Z" fill="white"/>
<path d="M25.9 8.38H22.85V9.91H25.9V8.38Z" fill="white"/>
<path d="M24.38 14.48H21.33V16H24.38V14.48Z" fill="white"/>
<path d="M18.28 12.95H16.76V14.48H21.33V12.95H19.81V11.43H18.28V12.95Z" fill="white"/>
<path d="M19.81 11.43H21.33V8.38H16.76V9.91H19.81V11.43Z" fill="white"/>
<path d="M16.76 9.91003H13.71V11.43H16.76V9.91003Z" fill="white"/>
<path d="M16.76 14.48H12.19V16H16.76V14.48Z" fill="white"/>
<path d="M13.71 11.43H10.66V12.95H13.71V11.43Z" fill="white"/>
<path d="M10.66 12.95H7.62V14.48H10.66V12.95Z" fill="white"/>
<path d="M7.62001 14.48H4.57001V16H7.62001V14.48Z" fill="white"/>
<path d="M4.57002 16H1.52002V17.53H4.57002V16Z" fill="white"/>
</svg>
