<svg width="24" height="24" viewBox="0 0 24 24" fill="none" xmlns="http://www.w3.org/2000/svg">
<path d="M9.61111 19.9444H13.3889C13.3889 20.9833 12.5389 21.8333 11.5 21.8333C10.4611 21.8333 9.61111 20.9833 9.61111 19.9444ZM20 18.0556V19H3V18.0556L4.88889 16.1667V10.5C4.88889 7.57222 6.77778 5.02222 9.61111 4.17222V3.88889C9.61111 2.85 10.4611 2 11.5 2C12.5389 2 13.3889 2.85 13.3889 3.88889V4.17222C16.2222 5.02222 18.1111 7.57222 18.1111 10.5V16.1667L20 18.0556ZM16.2222 10.5C16.2222 7.85556 14.1444 5.77778 11.5 5.77778C8.85556 5.77778 6.77778 7.85556 6.77778 10.5V17.1111H16.2222V10.5Z" fill="white"/>
</svg>
