<svg width="24" height="24" viewBox="0 0 24 24" fill="none" xmlns="http://www.w3.org/2000/svg">
<path d="M3.62063 7.68364H20.8557V21.0971H21.8174V4.81112H20.8557V3.85571H17.9832V5.77282H17.0278V3.85571H7.44856V5.77282H6.49315V3.85571H3.62063V4.81112H2.65894V21.0971H3.62063V7.68364Z" fill="white"/>
<path d="M20.8546 21.0959H3.61948V22.0514H20.8546V21.0959Z" fill="white"/>
<path d="M17.9825 1.93848H17.0271V3.85558H17.9825V1.93848Z" fill="white"/>
<path d="M13.1925 11.5173V15.3453H16.0651V17.2624H13.1925V18.2178H17.0268V14.3899H14.1542V12.4727H17.0268V11.5173H13.1925Z" fill="white"/>
<path d="M10.3208 11.5173H9.36541V12.4727H7.4483V13.4344H9.36541V17.2624H7.4483V18.2178H12.2379V17.2624H10.3208V11.5173Z" fill="white"/>
<path d="M7.44699 1.93848H6.49158V3.85558H7.44699V1.93848Z" fill="white"/>
</svg>
