<svg xmlns="http://www.w3.org/2000/svg" width="24" height="24" viewBox="0 0 24 24" fill="none">
  <path d="M6.70136 18.7256H6.21386V19.2131V20.9017H5.01271V19.2131V18.7256H4.52521H2.85078V17.5386H4.52521H5.01271V17.0511V15.3767H6.70136H7.18886V14.8892V13.2006H8.86328H9.35078V12.7131V10.5511V10.0636H8.86328H7.18886V8.38922V7.90172H6.70136H5.01271V6.21307V5.72557H4.52521H2.85078V4.53865H4.52521H5.01271V4.05115V2.3625H6.21386V4.05115V4.53865H6.70136H8.37578V6.21307V6.70057H8.86328H10.5377V8.38922V8.87672H11.0252H13.2014H13.6889V8.38922V6.70057H15.3633H15.8508V6.21307V4.53865H17.5394H18.0269V4.05115V2.3625H19.2139V4.05115V4.53865H19.7014H21.3758V5.72557H19.7014H19.2139V6.21307V7.90172H17.5394H17.0519V8.38922V10.0636H15.3633H14.8758V10.5511V12.7131V13.2006H15.3633H17.0519V14.8892V15.3767H17.5394H19.2139V17.0511V17.5386H19.7014H21.3758V18.7256H19.7014H19.2139V19.2131V20.9017H18.0269V19.2131V18.7256H17.5394H15.8508V17.0511V16.5636H15.3633H13.6889V14.8892V14.4017H13.2014H11.0252H10.5377V14.8892V16.5636H8.86328H8.37578V17.0511V18.7256H6.70136Z" fill="#05F500" stroke="#05F500" stroke-width="0.975"/>
</svg>