<svg width="27" height="27" viewBox="0 0 27 27" fill="none" xmlns="http://www.w3.org/2000/svg">
              <path
                d="M3.03296 26.5195H5.93449V23.6179H8.81706V20.7354H11.6996V17.8528H14.6012V20.7354H17.4837V23.6179H20.3853V26.5195H23.2678V23.6179H26.1504V20.7354H23.2678V17.8528H20.3853V14.9513H17.4837V12.0687H20.3853V9.18612H23.2678V6.28459H26.1504V3.40202H23.2678V0.500488H20.3853V3.40202H17.4837V6.28459H14.6012V9.18612H11.6996V6.28459H8.81706V3.40202H5.93449V0.500488H3.03296V3.40202H0.150391V6.28459H3.03296V9.18612H5.93449V12.0687H8.81706V14.9513H5.93449V17.8528H3.03296V20.7354H0.150391V23.6179H3.03296V26.5195Z"
                fill="white"
              />
            </svg>