<svg width="32" height="32" viewBox="0 0 32 32" fill="none" xmlns="http://www.w3.org/2000/svg">
<g id="PixelRemove">
<path id="Vector" d="M10.7014 22.7256H10.2139V23.2131V24.9017H9.01271V23.2131V22.7256H8.52521H6.85078V21.5386H8.52521H9.01271V21.0511V19.3767H10.7014H11.1889V18.8892V17.2006H12.8633H13.3508V16.7131V14.5511V14.0636H12.8633H11.1889V12.3892V11.9017H10.7014H9.01271V10.2131V9.72557H8.52521H6.85078V8.53865H8.52521H9.01271V8.05115V6.3625H10.2139V8.05115V8.53865H10.7014H12.3758V10.2131V10.7006H12.8633H14.5377V12.3892V12.8767H15.0252H17.2014H17.6889V12.3892V10.7006H19.3633H19.8508V10.2131V8.53865H21.5394H22.0269V8.05115V6.3625H23.2139V8.05115V8.53865H23.7014H25.3758V9.72557H23.7014H23.2139V10.2131V11.9017H21.5394H21.0519V12.3892V14.0636H19.3633H18.8758V14.5511V16.7131V17.2006H19.3633H21.0519V18.8892V19.3767H21.5394H23.2139V21.0511V21.5386H23.7014H25.3758V22.7256H23.7014H23.2139V23.2131V24.9017H22.0269V23.2131V22.7256H21.5394H19.8508V21.0511V20.5636H19.3633H17.6889V18.8892V18.4017H17.2014H15.0252H14.5377V18.8892V20.5636H12.8633H12.3758V21.0511V22.7256H10.7014Z" fill="#05F500" stroke="#05F500" stroke-width="0.975"/>
</g>
</svg>
