<svg width="74" height="92" viewBox="0 0 74 92" fill="none" xmlns="http://www.w3.org/2000/svg">
<path d="M63.6987 47.2854L73.053 41.8849V19.1561L63.6987 13.7556L49.7713 5.7151L40.417 0.3125V87.1076L40.444 87.0951V91.1091L49.7983 85.7086V74.9075L49.7713 74.9221V55.3239L63.6987 47.2834V47.2854ZM49.7713 16.5141L63.6987 24.5546V36.4823L49.7713 44.5228V16.5141Z" fill="#404040"/>
<path d="M24.188 5.71888L10.2605 13.7615L0.90625 19.162V41.8908L10.2605 47.2913L24.188 55.3318V74.9321L24.1796 74.9258L24.163 74.9155L15.898 70.1448L10.2709 66.8957L10.2855 62.1872L0.945746 56.795L0.931195 61.9772L0.92288 66.4634L0.914565 68.8747L0.90625 72.2983L24.1921 85.7352L33.5173 91.117V87.103L33.5422 87.1155V49.9313L24.188 44.5307L10.2605 36.4902V24.5625L24.188 16.522V29.2272L23.8117 29.4434L20.8454 31.1562L18.1947 32.7262L27.5469 38.1247L30.5759 36.3406L33.5422 34.6277V11.1194V0.318359L24.188 5.71888Z" fill="#404040"/>
</svg>
