<svg width="41" height="40" viewBox="0 0 41 40" fill="none" xmlns="http://www.w3.org/2000/svg">
<path d="M32.4002 20.6572L36.3147 18.3972V8.88568L32.4002 6.62567L26.5718 3.26088L22.6572 1V37.322L22.6685 37.3168V38.9965L26.5831 36.7365V32.2165L26.5718 32.2226V24.0211L32.4002 20.6564V20.6572ZM26.5718 7.78003L32.4002 11.1448V16.1363L26.5718 19.5011V7.78003Z" fill="#5FFF5C"/>
<path d="M14.7429 3.26245L8.91457 6.62811L5 8.88812V18.3997L8.91457 20.6597L14.7429 24.0245V32.2268L14.7394 32.2242L14.7325 32.2198L11.2737 30.2234L8.91892 28.8637L8.92501 26.8933L5.01653 24.6368L5.01044 26.8054L5.00696 28.6828L5.00348 29.6919L5 31.1246L14.7447 36.7477L18.6471 38.9999V37.3201L18.6575 37.3253V21.7644L14.7429 19.5044L8.91457 16.1396V11.1481L14.7429 7.78334V13.1002L14.5855 13.1907L13.3441 13.9075L12.2349 14.5645L16.1486 16.8236L17.4161 16.077L18.6575 15.3602V5.52246V1.00244L14.7429 3.26245Z" fill="#5FFF5C"/>
</svg>
