<svg width="24" height="24" viewBox="0 0 24 24" fill="none" xmlns="http://www.w3.org/2000/svg">
<path d="M12 4.75C12.4353 4.75 12.7879 5.1028 12.7881 5.53809V11.2119H18.4619C18.8972 11.2121 19.25 11.5647 19.25 12C19.25 12.4353 18.8972 12.7879 18.4619 12.7881H12.7881V18.4619C12.7879 18.8972 12.4353 19.25 12 19.25C11.5647 19.25 11.2121 18.8972 11.2119 18.4619V12.7881H5.53809C5.1028 12.7879 4.75 12.4353 4.75 12C4.75 11.5647 5.1028 11.2121 5.53809 11.2119H11.2119V5.53809C11.2121 5.1028 11.5647 4.75 12 4.75Z" fill="white" stroke="white" stroke-width="0.5"/>
</svg>
