<svg width="36" height="36" viewBox="0 0 36 36" fill="none" xmlns="http://www.w3.org/2000/svg">
<g clip-path="url(#clip0_158_3157)">
<rect x="3.75" y="3.75" width="28.5" height="28.5" rx="2.25" fill="#FBBC05"/>
<path d="M17.7958 8.21362L10.4134 15.7911C10.3491 15.8573 10.2727 15.9098 10.1885 15.9457C10.1044 15.9816 10.0142 16 9.92312 16C9.83203 16 9.74183 15.9816 9.65771 15.9457C9.57358 15.9098 9.49717 15.8573 9.43287 15.7911L6.20306 12.4759C6.13869 12.4099 6.08761 12.3314 6.05278 12.2451C6.01793 12.1588 6 12.0662 6 11.9727C6 11.8793 6.01793 11.7868 6.05278 11.7004C6.08761 11.6141 6.13869 11.5357 6.20306 11.4696C6.26744 11.4035 6.34387 11.3511 6.42799 11.3153C6.5121 11.2795 6.60226 11.2611 6.69331 11.2611C6.78435 11.2611 6.8745 11.2795 6.95862 11.3153C7.04273 11.3511 7.11916 11.4035 7.18354 11.4696L9.9237 14.2821L16.8164 7.20843C16.9465 7.07497 17.1228 7 17.3067 7C17.4905 7 17.6669 7.07497 17.7969 7.20843C17.927 7.34188 18 7.52288 18 7.71161C18 7.90035 17.927 8.08136 17.7969 8.21481L17.7958 8.21362Z" fill="white"/>
</g>
<defs>
<clipPath id="clip0_158_3157">
<rect x="2" y="2" width="20" height="20" rx="2" fill="white"/>
</clipPath>
</defs>
</svg>
