<svg width="282" height="248" viewBox="0 0 282 248" fill="none" xmlns="http://www.w3.org/2000/svg">
<g clip-path="url(#clip0_2881_303051)">
<path d="M181.001 62.8625H177.201V66.6625H181.001V62.8625Z" fill="#05F500"/>
<path d="M181.002 36.1876V28.5626H177.202V32.3876H173.377V24.7626H169.577V40.0126H165.752V36.1876H161.952V43.8126H169.577V55.2376H150.527V59.0626H181.002V55.2376H173.377V36.1876H181.002Z" fill="#05F500"/>
<path d="M180.998 1.9126H173.373V5.7126H180.998V1.9126Z" fill="#05F500"/>
<path d="M169.575 62.8625H165.75V66.6625H169.575V62.8625Z" fill="#05F500"/>
<path d="M169.578 9.5376H161.953V13.3376H169.578V9.5376Z" fill="#05F500"/>
<path d="M154.327 62.8625H150.527V66.6625H154.327V62.8625Z" fill="#05F500"/>
<path d="M150.527 24.7624H139.102V28.5624H150.527V32.3874H154.327V13.3374H150.527V24.7624Z" fill="#05F500"/>
<path d="M135.276 40.0124H127.676V43.8124H135.276V47.6124H127.676V43.8124H123.851V59.0624H135.276V62.8624H123.851V66.6624H112.426V70.4999H116.251V78.0999H123.851V74.2999H120.051V70.4999H131.476V66.6749H135.276V70.4999H142.901V66.6749H139.101V51.4499H142.901V55.2499H146.726V47.6249H139.101V36.1999H150.526V32.3999H135.276V40.0124ZM135.276 55.2374H127.676V51.4374H135.276V55.2374Z" fill="#05F500"/>
<path d="M135.276 1.9126H127.676V5.7126H135.276V1.9126Z" fill="#05F500"/>
<path d="M127.677 17.1375H123.852V24.7625H127.677V17.1375Z" fill="#05F500"/>
<path d="M150.522 9.5376H120.047V13.3376H150.522V9.5376Z" fill="#05F500"/>
<path d="M123.847 59.0625H120.047V62.8625H123.847V59.0625Z" fill="#05F500"/>
<path d="M120.05 13.3374H116.25V40.0124H120.05V13.3374Z" fill="#05F500"/>
<path d="M116.251 40.0125H112.426V51.4375H116.251V40.0125Z" fill="#05F500"/>
<path d="M112.427 62.8625H108.627V66.6625H112.427V62.8625Z" fill="#05F500"/>
<path d="M112.427 51.4377H108.627V55.2377H112.427V51.4377Z" fill="#05F500"/>
<path d="M108.624 59.0625H104.799V62.8625H108.624V59.0625Z" fill="#05F500"/>
<path d="M108.625 13.3374H101V17.1374H108.625V13.3374Z" fill="#05F500"/>
<path d="M104.8 51.4375H108.625V47.6125H104.8V43.8125H101V59.0625H104.8V51.4375Z" fill="#05F500"/>
</g>
<path d="M14.2 110V116H12.2V118H6.2V126H2.2V108H12.2V110H14.2ZM10.2 110H6.2V116H10.2V110ZM27.56 108V110H29.56V114H25.56V110H21.56V124H25.56V120H29.56V124H27.56V126H19.56V124H17.56V110H19.56V108H27.56ZM34.92 118V112H54.92V108H34.92V106H58.92V114H38.92V118H58.92V120H48.92V126H60.92V128H32.92V126H44.92V120H36.92V118H34.92ZM95.64 118H91.64V116H89.64V114H85.64V116H83.64V118H79.64V116H81.64V114H83.64V112H85.64V106H79.64V104H95.64V106H89.64V112H91.64V114H93.64V116H95.64V118ZM105.64 118H101.64V112H95.64V110H101.64V104H105.64V118ZM83.64 128H81.64V120H85.64V124H101.64V120H105.64V128H103.64V130H83.64V128ZM101.64 126H85.64V128H101.64V126ZM129 112H127V110H123V112H121V114H113V112H119V110H121V108H123V104H127V108H129V110H131V112H137V114H129V112ZM127 116H139V118H111V116H123V112H127V116ZM137 128H135V130H133V122H113V120H137V128ZM152.36 106H158.36V108H142.36V106H148.36V104H152.36V106ZM164.36 130H160.36V104H164.36V116H166.36V104H170.36V130H166.36V118H164.36V130ZM154.36 128H146.36V126H144.36V124H142.36V114H144.36V112H146.36V110H154.36V112H156.36V114H158.36V124H156.36V126H154.36V128ZM148.36 114H146.36V124H148.36V126H152.36V124H154.36V114H152.36V112H148.36V114ZM199.72 118H191.72V116H189.72V114H185.72V116H183.72V118H175.72V116H181.72V114H183.72V112H185.72V108H175.72V106H199.72V108H189.72V112H191.72V114H193.72V116H199.72V118ZM201.72 122H189.72V130H185.72V122H173.72V120H201.72V122ZM227.08 130H223.08V118H219.08V116H223.08V104H227.08V130ZM233.08 130H229.08V104H233.08V130ZM217.08 126H215.08V124H211.08V126H209.08V128H205.08V126H207.08V124H209.08V122H211.08V106H215.08V122H217.08V124H219.08V126H221.08V128H217.08V126ZM238.44 116V110H240.44V108H242.44V106H258.44V108H260.44V110H262.44V116H260.44V118H258.44V126H264.44V128H236.44V126H242.44V118H240.44V116H238.44ZM256.44 108H244.44V110H242.44V116H244.44V118H256.44V116H258.44V110H256.44V108ZM254.44 120H246.44V126H254.44V120ZM275.8 108V110H277.8V116H275.8V120H271.8V116H269.8V110H271.8V108H275.8ZM271.8 126V122H275.8V126H271.8Z" fill="#05F500"/>
<path d="M91.1641 159.422C91.1641 161.797 93.8828 163.922 96.3047 164.375L95.7422 165.406C93.6484 164.922 91.4375 163.43 90.5391 161.375C89.6406 163.422 87.4375 164.914 85.3359 165.406L84.7734 164.375C87.1797 163.906 89.8828 161.812 89.8828 159.422V158.359H91.1641V159.422ZM96.9609 168.359V169.375H84.2422V168.359H96.9609ZM106.055 158.891V159.906H104.508V166.594C105.258 166.539 106 166.477 106.711 166.391L106.773 167.297C103.836 167.766 100.508 167.812 98.0547 167.828L97.8984 166.781C98.4844 166.781 99.1094 166.781 99.7734 166.766V159.906H98.2422V158.891H106.055ZM108.82 157.375V162.953H111.148V163.984H108.82V171.266H107.602V157.375H108.82ZM100.961 166.75C101.734 166.734 102.539 166.703 103.336 166.656V159.906H100.961V166.75ZM124.617 168.484V169.516H111.898V168.484H124.617ZM123.008 158.438V162.641H114.711V164.922H123.336V165.906H113.492V161.641H121.805V159.453H113.461V158.438H123.008ZM132.852 158.641V159.672H127.57V162.547H132.539V163.547H127.57V166.906C130.07 166.906 131.828 166.805 133.914 166.453L134.055 167.469C131.883 167.828 130.055 167.906 127.43 167.922H126.336V158.641H132.852ZM136.477 157.375V162.969H138.805V164.016H136.477V171.266H135.258V157.375H136.477ZM155.461 157.375V171.266H154.289V157.375H155.461ZM152.539 157.75V170.562H151.367V164.078H148.43C147.578 165.695 146.242 167.125 144.305 168.266L143.586 167.375C146.609 165.586 148.125 163.078 148.352 160.172H144.18V159.156H149.57C149.562 160.523 149.344 161.844 148.883 163.078H151.367V157.75H152.539ZM168.867 157.391V165.328H167.648V157.391H168.867ZM168.867 166.078V171.078H159.836V166.078H168.867ZM161.039 167.078V170.078H167.664V167.078H161.039ZM161.367 158.125C163.477 158.125 165.008 159.438 165.008 161.375C165.008 163.281 163.477 164.609 161.367 164.609C159.258 164.609 157.727 163.281 157.727 161.375C157.727 159.438 159.258 158.125 161.367 158.125ZM161.367 159.172C159.945 159.156 158.914 160.078 158.93 161.375C158.914 162.656 159.945 163.562 161.367 163.562C162.773 163.562 163.805 162.656 163.805 161.375C163.805 160.078 162.773 159.156 161.367 159.172ZM183.945 168.391V169.422H171.227V168.391H183.945ZM178.195 160.438C178.195 162.656 180.945 164.547 183.336 164.938L182.836 165.906C180.711 165.492 178.469 164.133 177.586 162.219C176.688 164.148 174.453 165.547 172.367 165.969L171.852 164.984C174.195 164.578 176.93 162.656 176.93 160.438V159.797H172.273V158.781H182.852V159.797H178.195V160.438ZM196.289 161.594V162.578H186.773V157.891H187.992V161.594H196.289ZM197.758 164.469V165.469H185.039V164.469H197.758ZM196.367 169.906V170.922H186.695V166.891H187.914V169.906H196.367ZM11.1797 194V182.688H15.0234C17.6797 182.688 18.8828 184.266 18.8828 186.281C18.8828 188.281 17.6797 189.891 15.0391 189.891H12.5859V194H11.1797ZM12.5859 188.641H14.9766C16.7734 188.641 17.4922 187.625 17.4922 186.281C17.4922 184.922 16.7734 183.938 14.9609 183.938H12.5859V188.641ZM28.5703 186.25C28.2422 184.688 26.8984 183.844 25.4141 183.844C23.3672 183.844 21.7734 185.422 21.7734 188.344C21.7734 191.266 23.3672 192.844 25.4141 192.844C26.8984 192.844 28.2266 192 28.5703 190.453H29.9766C29.5703 192.766 27.7109 194.156 25.4141 194.156C22.5078 194.156 20.4141 191.922 20.4141 188.344C20.4141 184.766 22.5078 182.531 25.4141 182.531C27.6953 182.531 29.5547 183.906 29.9766 186.25H28.5703ZM43.1484 181.375V195.266H41.9766V181.375H43.1484ZM40.2266 181.75V194.562H39.0547V188.078H36.1172C35.2656 189.695 33.9297 191.125 31.9922 192.266L31.2734 191.375C34.2969 189.586 35.8125 187.078 36.0391 184.172H31.8672V183.156H37.2578C37.25 184.523 37.0312 185.844 36.5703 187.078H39.0547V181.75H40.2266ZM56.5547 181.391V189.328H55.3359V181.391H56.5547ZM56.5547 190.078V195.078H47.5234V190.078H56.5547ZM48.7266 191.078V194.078H55.3516V191.078H48.7266ZM49.0547 182.125C51.1641 182.125 52.6953 183.438 52.6953 185.375C52.6953 187.281 51.1641 188.609 49.0547 188.609C46.9453 188.609 45.4141 187.281 45.4141 185.375C45.4141 183.438 46.9453 182.125 49.0547 182.125ZM49.0547 183.172C47.6328 183.156 46.6016 184.078 46.6172 185.375C46.6016 186.656 47.6328 187.562 49.0547 187.562C50.4609 187.562 51.4922 186.656 51.4922 185.375C51.4922 184.078 50.4609 183.156 49.0547 183.172ZM65.2422 181.625C68.3359 181.625 70.1484 182.469 70.1484 184.016C70.1484 185.594 68.3359 186.438 65.2422 186.453C62.1484 186.438 60.3203 185.594 60.3203 184.016C60.3203 182.469 62.1484 181.625 65.2422 181.625ZM65.2422 182.547C62.9297 182.547 61.5859 183.109 61.6016 184.016C61.5859 184.984 62.9297 185.516 65.2422 185.516C67.5391 185.516 68.8984 184.984 68.8984 184.016C68.8984 183.109 67.5391 182.547 65.2422 182.547ZM71.5703 187.391V188.391H58.9141V187.391H71.5703ZM69.9453 189.594V192.703H61.6953V194.141H70.3672V195.109H60.4766V191.797H68.7422V190.531H60.4453V189.594H69.9453ZM88.2109 181.812V182.781H86.0703V185.469H88.1641V186.422H77.9922V185.469H80.0859V182.781H77.9453V181.812H88.2109ZM89.4141 187.594V188.578H76.7578V187.594H89.4141ZM87.7891 189.828V192.844H79.5391V194.172H88.2109V195.109H78.3203V191.953H86.5859V190.75H78.2891V189.828H87.7891ZM81.3047 185.469H84.8516V182.781H81.3047V185.469ZM96.0078 182.922V187.719H92.2422V190.812C93.8438 190.805 95.3594 190.75 97.2109 190.422L97.3047 191.438C95.3203 191.797 93.7422 191.828 91.9766 191.844H91.0547V186.703H94.8359V183.938H91.0234V182.922H96.0078ZM102.461 181.375V195.266H101.289V181.375H102.461ZM99.6172 181.719V194.531H98.4609V187.391H96.6797V186.391H98.4609V181.719H99.6172ZM115.867 181.375V195.297H114.633V181.375H115.867ZM108.477 182.453C110.539 182.469 112.023 184.344 112.023 187.297C112.023 190.25 110.539 192.125 108.477 192.125C106.398 192.125 104.93 190.25 104.93 187.297C104.93 184.344 106.398 182.469 108.477 182.453ZM108.477 183.547C107.086 183.562 106.117 185.031 106.117 187.297C106.117 189.562 107.086 191.031 108.477 191.031C109.867 191.031 110.836 189.562 110.836 187.297C110.836 185.031 109.867 183.562 108.477 183.547ZM129.102 181.328V184.703H131.211V185.719H129.102V189.016H127.883V181.328H129.102ZM129.102 189.734V192.812H121.477V194.172H129.617V195.109H120.273V191.906H127.883V190.656H120.242V189.734H129.102ZM126.555 182.641V183.625H118.273V182.641H121.805V181.234H123.023V182.641H126.555ZM122.414 184.25C124.43 184.25 125.742 185.125 125.758 186.531C125.742 187.938 124.43 188.812 122.414 188.812C120.383 188.812 119.055 187.938 119.07 186.531C119.055 185.125 120.383 184.25 122.414 184.25ZM122.414 185.156C121.102 185.156 120.227 185.703 120.242 186.531C120.227 187.375 121.102 187.891 122.414 187.891C123.727 187.891 124.586 187.375 124.602 186.531C124.586 185.703 123.727 185.156 122.414 185.156ZM143.055 182.672C143.055 184.625 145.617 186.328 148.117 186.672L147.617 187.672C145.461 187.312 143.328 186.117 142.43 184.406C141.539 186.125 139.398 187.312 137.242 187.672L136.742 186.672C139.242 186.328 141.789 184.656 141.789 182.672V181.875H143.055V182.672ZM148.742 189.203V190.234H142.992V195.266H141.789V190.234H136.086V189.203H148.742ZM158.633 190.703C158.633 191.93 159.289 193.234 160.617 193.984C161.93 193.164 162.633 191.781 162.633 190.703V189.938H163.836V190.703C163.836 192.125 164.883 193.562 166.664 194.172L166.055 195.078C164.664 194.586 163.688 193.617 163.211 192.453C162.781 193.578 161.93 194.641 160.648 195.188C159.297 194.672 158.438 193.648 158.023 192.484C157.531 193.609 156.57 194.578 155.242 195.078L154.617 194.172C156.367 193.516 157.43 192.031 157.445 190.703V189.938H158.633V190.703ZM165.398 181.391V189.328H164.18V181.391H165.398ZM157.898 182.203C160.008 182.203 161.539 183.516 161.539 185.453C161.539 187.359 160.008 188.672 157.898 188.672C155.789 188.672 154.258 187.359 154.258 185.453C154.258 183.516 155.789 182.203 157.898 182.203ZM157.898 183.25C156.477 183.234 155.445 184.156 155.461 185.453C155.445 186.734 156.477 187.641 157.898 187.656C159.305 187.641 160.336 186.734 160.336 185.453C160.336 184.156 159.305 183.234 157.898 183.25ZM178.992 185.594V186.578H169.477V181.891H170.695V185.594H178.992ZM180.461 188.469V189.469H167.742V188.469H180.461ZM179.07 193.906V194.922H169.398V190.891H170.617V193.906H179.07ZM190.492 185.109C190.492 187.625 192.102 190.156 194.117 191.078L193.383 192.078C191.805 191.266 190.5 189.602 189.883 187.625C189.266 189.703 187.961 191.484 186.383 192.328L185.586 191.344C187.617 190.344 189.242 187.672 189.242 185.109V182.578H190.492V185.109ZM197.117 181.375V195.297H195.898V187.125H192.602V186.125H195.898V181.375H197.117ZM210.883 181.375V195.297H209.648V181.375H210.883ZM201.461 182.562V186.234H205.602V182.562H206.805V191.938H200.242V182.562H201.461ZM201.461 190.906H205.602V187.219H201.461V190.906ZM220.18 183.422C220.18 185.797 222.898 187.922 225.32 188.375L224.758 189.406C222.664 188.922 220.453 187.43 219.555 185.375C218.656 187.422 216.453 188.914 214.352 189.406L213.789 188.375C216.195 187.906 218.898 185.812 218.898 183.422V182.359H220.18V183.422ZM225.977 192.359V193.375H213.258V192.359H225.977ZM238.555 181.375V188.828H237.336V181.375H238.555ZM230.773 189.531V191.219H237.336V189.531H238.555V195.078H229.555V189.531H230.773ZM230.773 194.078H237.336V192.203H230.773V194.078ZM231.055 182.062C233.164 182.047 234.695 183.344 234.695 185.25C234.695 187.141 233.164 188.438 231.055 188.438C228.945 188.438 227.414 187.141 227.414 185.25C227.414 183.344 228.945 182.047 231.055 182.062ZM231.055 183.094C229.633 183.078 228.602 183.984 228.617 185.25C228.602 186.516 229.633 187.422 231.055 187.422C232.461 187.422 233.492 186.516 233.492 185.25C233.492 183.984 232.461 183.078 231.055 183.094ZM252.367 181.375V195.266H251.148V181.375H252.367ZM243.023 182.75V190.625C245.141 190.617 247.336 190.445 249.664 189.953L249.836 191C247.367 191.516 245.164 191.688 242.945 191.688H241.82V182.75H243.023ZM265.492 181.375V186.875H267.82V187.906H265.492V195.297H264.273V181.375H265.492ZM261.836 182.734V183.75H256.57V190.781C259.086 190.781 260.867 190.664 262.93 190.281L263.086 191.344C260.914 191.734 259.086 191.812 256.445 191.812H255.352V182.734H261.836ZM270.039 194.094C269.492 194.094 269.023 193.641 269.039 193.078C269.023 192.531 269.492 192.078 270.039 192.078C270.586 192.078 271.039 192.531 271.039 193.078C271.039 193.641 270.586 194.094 270.039 194.094ZM49.3984 216.453V217.484H36.6797V216.453H42.3984V213.062H38.1797V206.547H47.8203V213.062H43.6016V216.453H49.3984ZM39.3828 207.531V212.078H46.6328V207.531H39.3828ZM61.2578 205.375V210.844H63.5859V211.906H61.2578V219.266H60.0391V205.375H61.2578ZM52.3047 206.562V210.234H56.3672V206.562H57.5859V215.938H51.0859V206.562H52.3047ZM52.3047 214.906H56.3672V211.219H52.3047V214.906ZM68.2734 205.891C70.3516 205.906 71.8672 207.156 71.8672 208.969C71.8672 210.781 70.3516 212.031 68.2734 212.031C66.1641 212.031 64.6641 210.781 64.6641 208.969C64.6641 207.156 66.1641 205.906 68.2734 205.891ZM68.2734 206.922C66.8828 206.922 65.8516 207.766 65.8672 208.969C65.8516 210.188 66.8828 211.031 68.2734 211.031C69.6484 211.031 70.6797 210.188 70.6797 208.969C70.6797 207.766 69.6484 206.922 68.2734 206.922ZM75.8047 205.375V212.516H74.5859V205.375H75.8047ZM75.8047 213.188V216.531H68.0078V218.094H76.3047V219.078H66.8047V215.609H74.5859V214.172H66.7734V213.188H75.8047ZM90.0703 205.375V219.266H88.8828V205.375H90.0703ZM87.2734 205.672V218.562H86.1016V211.812H84.3203C84.1875 214.516 83.0391 216.203 81.3203 216.203C79.5078 216.203 78.3359 214.328 78.3359 211.375C78.3359 208.422 79.5078 206.547 81.3203 206.547C83.0078 206.547 84.1484 208.18 84.3047 210.797H86.1016V205.672H87.2734ZM81.3203 207.703C80.1953 207.703 79.4766 209.109 79.4922 211.375C79.4766 213.625 80.1953 215.047 81.3203 215.031C82.4453 215.047 83.1641 213.625 83.1641 211.375C83.1641 209.109 82.4453 207.703 81.3203 207.703ZM96.8828 209.109C96.8828 211.625 98.4922 214.156 100.508 215.078L99.7734 216.078C98.1953 215.266 96.8906 213.602 96.2734 211.625C95.6562 213.703 94.3516 215.484 92.7734 216.328L91.9766 215.344C94.0078 214.344 95.6328 211.672 95.6328 209.109V206.578H96.8828V209.109ZM103.508 205.375V219.297H102.289V211.125H98.9922V210.125H102.289V205.375H103.508ZM117.039 211.891V212.891H112.742V216.484H118.539V217.516H105.82V216.484H111.539V212.891H107.445V206.516H116.898V207.516H108.68V211.891H117.039ZM135.164 205.375V212.922H133.945V209.781H131.133V208.75H133.945V205.375H135.164ZM127.461 213.594V215.328H133.945V213.594H135.164V219.078H126.227V213.594H127.461ZM127.461 218.078H133.945V216.312H127.461V218.078ZM128.492 207.641C128.492 209.422 129.883 211.172 131.914 211.875L131.273 212.828C129.703 212.258 128.492 211.094 127.898 209.656C127.297 211.266 126.016 212.555 124.367 213.156L123.727 212.188C125.773 211.453 127.258 209.609 127.258 207.641V207.234H124.117V206.219H131.602V207.234H128.492V207.641ZM148.539 206.219V207.297C148.539 208.461 148.539 209.875 148.18 211.766H150.211V212.797H137.492V211.766H146.945C147.32 209.844 147.32 208.484 147.32 207.297V207.219H139.102V206.219H148.539ZM148.961 217.922V218.953H139.18V214.359H140.398V217.922H148.961ZM162.07 205.375V211.109H164.398V212.125H162.07V219.266H160.852V205.375H162.07ZM159.508 207.609V208.625H151.242V207.609H154.82V205.547H156.039V207.609H159.508ZM155.445 209.781C157.414 209.781 158.836 211.094 158.852 212.969C158.836 214.844 157.414 216.156 155.445 216.156C153.461 216.156 152.023 214.844 152.039 212.969C152.023 211.094 153.461 209.781 155.445 209.781ZM155.445 210.812C154.148 210.812 153.195 211.719 153.211 212.969C153.195 214.234 154.148 215.125 155.445 215.109C156.727 215.125 157.664 214.234 157.68 212.969C157.664 211.719 156.727 210.812 155.445 210.812ZM176.602 205.375V212.578H175.398V205.375H176.602ZM176.617 213.281V216.609H168.82V218.109H177.117V219.109H167.617V215.656H175.398V214.266H167.586V213.281H176.617ZM170.07 206.844C170.055 208.812 171.555 210.547 173.617 211.219L173.008 212.172C171.383 211.617 170.086 210.453 169.461 208.953C168.836 210.57 167.531 211.844 165.883 212.438L165.242 211.469C167.336 210.734 168.82 208.891 168.82 206.844V205.781H170.07V206.844ZM189.961 206.672C189.961 208.625 192.523 210.328 195.023 210.672L194.523 211.672C192.367 211.312 190.234 210.117 189.336 208.406C188.445 210.125 186.305 211.312 184.148 211.672L183.648 210.672C186.148 210.328 188.695 208.656 188.695 206.672V205.875H189.961V206.672ZM195.648 213.203V214.234H189.898V219.266H188.695V214.234H182.992V213.203H195.648ZM205.539 214.703C205.539 215.93 206.195 217.234 207.523 217.984C208.836 217.164 209.539 215.781 209.539 214.703V213.938H210.742V214.703C210.742 216.125 211.789 217.562 213.57 218.172L212.961 219.078C211.57 218.586 210.594 217.617 210.117 216.453C209.688 217.578 208.836 218.641 207.555 219.188C206.203 218.672 205.344 217.648 204.93 216.484C204.438 217.609 203.477 218.578 202.148 219.078L201.523 218.172C203.273 217.516 204.336 216.031 204.352 214.703V213.938H205.539V214.703ZM212.305 205.391V213.328H211.086V205.391H212.305ZM204.805 206.203C206.914 206.203 208.445 207.516 208.445 209.453C208.445 211.359 206.914 212.672 204.805 212.672C202.695 212.672 201.164 211.359 201.164 209.453C201.164 207.516 202.695 206.203 204.805 206.203ZM204.805 207.25C203.383 207.234 202.352 208.156 202.367 209.453C202.352 210.734 203.383 211.641 204.805 211.656C206.211 211.641 207.242 210.734 207.242 209.453C207.242 208.156 206.211 207.234 204.805 207.25ZM220.992 206.281C223.898 206.281 226.07 207.797 226.07 210.094C226.07 212.406 223.898 213.922 220.992 213.906C218.086 213.922 215.914 212.406 215.914 210.094C215.914 207.797 218.086 206.281 220.992 206.281ZM220.992 207.281C218.758 207.266 217.07 208.438 217.086 210.094C217.07 211.781 218.758 212.906 220.992 212.906C223.211 212.906 224.883 211.781 224.883 210.094C224.883 208.438 223.211 207.266 220.992 207.281ZM227.383 216.391V217.422H214.664V216.391H227.383ZM241.492 210.922V211.953H239.242V219.266H238.023V205.375H239.242V210.922H241.492ZM230.289 206.75V214.703C232.32 214.695 234.391 214.539 236.68 214.062L236.836 215.109C234.445 215.594 232.289 215.734 230.18 215.734H229.07V206.75H230.289ZM244.602 216.953L243.383 221.203H242.227L243.086 216.953H244.602ZM48.1641 229.391V239.938H46.9297V238.5H44.0547V237.609H46.9297V229.391H48.1641ZM48.5078 241.938V242.969H38.6328V238.906H39.8672V241.938H48.5078ZM36.6328 235.828C39.2266 235.812 42.6953 235.797 45.6797 235.422L45.7578 236.312C44.5156 236.508 43.2188 236.633 41.9453 236.703V239.453H40.7109V236.766C39.3047 236.828 37.9688 236.836 36.8047 236.828L36.6328 235.828ZM41.1953 229.953C43.2266 229.953 44.6172 230.922 44.6328 232.375C44.6172 233.859 43.2266 234.781 41.1953 234.781C39.1484 234.781 37.7578 233.859 37.7578 232.375C37.7578 230.922 39.1484 229.953 41.1953 229.953ZM41.1953 230.891C39.8359 230.875 38.9141 231.484 38.9297 232.375C38.9141 233.281 39.8359 233.875 41.1953 233.875C42.5078 233.875 43.4453 233.281 43.4609 232.375C43.4453 231.484 42.5078 230.875 41.1953 230.891ZM61.3828 229.375V232.938H63.4609V233.984H61.3828V237.578H60.1484V229.375H61.3828ZM61.3828 238.203V241H53.5859V242.234H61.9141V243.109H52.3672V240.172H60.1641V239.078H52.3359V238.203H61.3828ZM50.4766 236.328C51.5859 236.328 52.8828 236.328 54.2422 236.281V235.422C52.6172 235.305 51.5859 234.656 51.5859 233.594C51.5859 232.453 52.8672 231.797 54.8359 231.797C56.8203 231.797 58.0859 232.453 58.1016 233.594C58.0859 234.648 57.0859 235.297 55.4609 235.422V236.25C56.7578 236.188 58.0703 236.086 59.2891 235.906L59.3984 236.734C56.3984 237.219 53.0547 237.25 50.6172 237.25L50.4766 236.328ZM58.8672 230.438V231.328H50.8203V230.438H54.2422V229.25H55.4609V230.438H58.8672ZM54.8359 232.609C53.5547 232.625 52.7578 232.984 52.7578 233.594C52.7578 234.219 53.5547 234.625 54.8359 234.625C56.1172 234.625 56.9297 234.219 56.9297 233.594C56.9297 232.984 56.1172 232.625 54.8359 232.609ZM75.2266 229.391V233.969H77.3203V235H75.2266V239.797H74.0078V229.391H75.2266ZM72.6797 231.094V232.094H64.3984V231.094H67.9297V229.391H69.1484V231.094H72.6797ZM68.5391 232.859C70.5234 232.859 71.8672 233.875 71.8828 235.453C71.8672 237.016 70.5234 238.016 68.5391 238.016C66.5391 238.016 65.1797 237.016 65.1953 235.453C65.1797 233.875 66.5391 232.859 68.5391 232.859ZM68.5391 233.828C67.2266 233.828 66.3516 234.469 66.3672 235.453C66.3516 236.438 67.2266 237.062 68.5391 237.047C69.8359 237.062 70.7109 236.438 70.7266 235.453C70.7109 234.469 69.8359 233.828 68.5391 233.828ZM75.8672 241.938V242.969H66.5391V238.969H67.7422V241.938H75.8672ZM87.1016 233.109C87.1016 235.625 88.7109 238.156 90.7266 239.078L89.9922 240.078C88.4141 239.266 87.1094 237.602 86.4922 235.625C85.875 237.703 84.5703 239.484 82.9922 240.328L82.1953 239.344C84.2266 238.344 85.8516 235.672 85.8516 233.109V230.578H87.1016V233.109ZM93.7266 229.375V243.297H92.5078V235.125H89.2109V234.125H92.5078V229.375H93.7266ZM107.492 229.375V243.297H106.258V229.375H107.492ZM98.0703 230.562V234.234H102.211V230.562H103.414V239.938H96.8516V230.562H98.0703ZM98.0703 238.906H102.211V235.219H98.0703V238.906ZM116.789 231.422C116.789 233.797 119.508 235.922 121.93 236.375L121.367 237.406C119.273 236.922 117.062 235.43 116.164 233.375C115.266 235.422 113.062 236.914 110.961 237.406L110.398 236.375C112.805 235.906 115.508 233.812 115.508 231.422V230.359H116.789V231.422ZM122.586 240.359V241.375H109.867V240.359H122.586ZM139.164 229.375V243.297H137.93V229.375H139.164ZM131.773 230.453C133.836 230.469 135.32 232.344 135.32 235.297C135.32 238.25 133.836 240.125 131.773 240.125C129.695 240.125 128.227 238.25 128.227 235.297C128.227 232.344 129.695 230.469 131.773 230.453ZM131.773 231.547C130.383 231.562 129.414 233.031 129.414 235.297C129.414 237.562 130.383 239.031 131.773 239.031C133.164 239.031 134.133 237.562 134.133 235.297C134.133 233.031 133.164 231.562 131.773 231.547ZM154.195 236.25V237.266H141.539V236.25H144.68V234.297C143.57 233.867 142.945 233.156 142.945 232.219C142.945 230.578 144.82 229.641 147.867 229.641C150.883 229.641 152.773 230.578 152.773 232.219C152.773 233.148 152.156 233.859 151.055 234.281V236.25H154.195ZM147.867 238.328C150.852 238.328 152.633 239.188 152.648 240.781C152.633 242.359 150.852 243.234 147.867 243.234C144.852 243.234 143.07 242.359 143.07 240.781C143.07 239.188 144.852 238.328 147.867 238.328ZM147.867 239.266C145.633 239.281 144.305 239.828 144.32 240.781C144.305 241.719 145.633 242.281 147.867 242.281C150.07 242.281 151.414 241.719 151.414 240.781C151.414 239.828 150.07 239.281 147.867 239.266ZM147.867 230.609C145.602 230.609 144.195 231.219 144.211 232.219C144.195 233.234 145.602 233.828 147.867 233.828C150.117 233.828 151.523 233.234 151.523 232.219C151.523 231.219 150.117 230.609 147.867 230.609ZM145.898 236.25H149.836V234.625C149.25 234.727 148.594 234.781 147.867 234.781C147.141 234.781 146.484 234.727 145.898 234.625V236.25ZM166.82 229.375V243.297H165.586V229.375H166.82ZM159.43 230.453C161.492 230.469 162.977 232.344 162.977 235.297C162.977 238.25 161.492 240.125 159.43 240.125C157.352 240.125 155.883 238.25 155.883 235.297C155.883 232.344 157.352 230.469 159.43 230.453ZM159.43 231.547C158.039 231.562 157.07 233.031 157.07 235.297C157.07 237.562 158.039 239.031 159.43 239.031C160.82 239.031 161.789 237.562 161.789 235.297C161.789 233.031 160.82 231.562 159.43 231.547ZM176.945 230.453C178.836 230.469 180.195 232.086 180.398 234.688H183.508V229.375H184.727V243.297H183.508V235.703H180.414C180.266 238.422 178.883 240.125 176.945 240.125C174.898 240.125 173.461 238.25 173.461 235.297C173.461 232.344 174.898 230.469 176.945 230.453ZM176.945 231.547C175.57 231.562 174.633 233.031 174.633 235.297C174.633 237.562 175.57 239.031 176.945 239.031C178.305 239.031 179.258 237.562 179.258 235.297C179.258 233.031 178.305 231.562 176.945 231.547ZM198.555 229.391V237.156H197.32V234.891H194.555V233.891H197.32V232.203H194.555V231.188H197.32V229.391H198.555ZM193.633 230.016V233.766H188.852V235.703C191.43 235.688 192.773 235.664 194.461 235.375L194.57 236.391C192.805 236.688 191.398 236.719 188.617 236.734H187.633V232.812H192.414V231.031H187.602V230.016H193.633ZM190.727 237.719V239.344H197.336V237.719H198.555V243.078H189.492V237.719H190.727ZM190.727 242.078H197.336V240.328H190.727V242.078ZM203.695 237.719V239.344H210.633V237.719H211.867V243.078H202.477V237.719H203.695ZM203.695 242.094H210.633V240.312H203.695V242.094ZM213.523 235.719V236.734H200.867V235.719H213.523ZM207.836 230.188C207.836 231.906 210.367 233.438 212.805 233.75L212.352 234.734C210.195 234.414 208.086 233.312 207.211 231.75C206.32 233.32 204.195 234.414 202.055 234.734L201.586 233.75C204.055 233.422 206.57 231.953 206.57 230.188V229.531H207.836V230.188ZM226.148 229.375V243.266H224.93V229.375H226.148ZM216.805 230.75V238.625C218.922 238.617 221.117 238.445 223.445 237.953L223.617 239C221.148 239.516 218.945 239.688 216.727 239.688H215.602V230.75H216.805ZM239.273 229.375V234.875H241.602V235.906H239.273V243.297H238.055V229.375H239.273ZM235.617 230.734V231.75H230.352V238.781C232.867 238.781 234.648 238.664 236.711 238.281L236.867 239.344C234.695 239.734 232.867 239.812 230.227 239.812H229.133V230.734H235.617ZM243.82 242.094C243.273 242.094 242.805 241.641 242.82 241.078C242.805 240.531 243.273 240.078 243.82 240.078C244.367 240.078 244.82 240.531 244.82 241.078C244.82 241.641 244.367 242.094 243.82 242.094Z" fill="white"/>
<defs>
<clipPath id="clip0_2881_303051">
<rect width="80" height="80" fill="white" transform="translate(101)"/>
</clipPath>
</defs>
</svg>
