<svg width="20" height="21" viewBox="0 0 20 21" fill="none" xmlns="http://www.w3.org/2000/svg">
<g clip-path="url(#clip0_3230_203997)">
<path fill-rule="evenodd" clip-rule="evenodd" d="M11.2103 5.47202V5.4721H12.0861V5.472H12.9981V5.47209H12.9991V7.29602H18.4882V8.21402H19.4002V9.12603H18.4882V10.038L17.5708 10.038V10.956H15.7408V11.2507H15.7402V11.868H14.8282V13.698H15.7402V14.8258H15.7736V15.528H16.6582V17.358H17.5702V19.182H16.6582V20.1H14.8282V19.182H15.7402V19.1819H14.8278V19.182H13.9158V18.27H14.5443V18.2699H13.9161V18.27H12.0861V17.358H12.3003V17.3579H12.0856V17.3581H11.1736V16.4401H11.3294V16.4399H11.1744V16.4401H10.2564V15.5281H10.5731V15.5279H10.2562V15.528H9.3442V16.44H8.4262V17.358H7.5142V18.27H5.6842V19.182H4.7722V20.1H2.9422V19.182H2.0302V17.358H2.9422V18.27H2.94277L2.94277 17.3581H2.94238V15.5281H3.10713H3.85957V13.6981H4.04932H4.77157H5.54307V13.698H4.7722V11.868H3.8602V10.956H2.0302V10.038H1.1122V9.12603H0.200195V8.21402H1.1122V7.29602H6.6022V5.47202H7.5142V3.64202H8.4262V1.81202H9.3442V0.900024H10.2562V1.81202H11.1742V3.64202H11.2103H12.0856V5.47202H11.2103ZM4.7722 10.038V10.038H5.30957V10.038H4.7722Z" fill="#05F500"/>
</g>
<defs>
<clipPath id="clip0_3230_203997">
<rect width="19.2" height="19.2" fill="white" transform="translate(0.200195 0.900024)"/>
</clipPath>
</defs>
</svg>
