<svg width="12" height="12" viewBox="0 0 12 12" fill="none" xmlns="http://www.w3.org/2000/svg">
<g clip-path="url(#clip0_1723_13957)">
<path fill-rule="evenodd" clip-rule="evenodd" d="M7.99875 2.85754H7.99878V3.9975H11.43V4.57125H12V5.14125H11.43V5.71125H10.8563V5.14125H10.8561V5.71125H10.8563L10.8562 6.285L9.7125 6.285V5.86011H9.71246V6.285H9.7125V6.855H9.1425V7.99875H9.7125V8.70364H9.73334V9.1425H10.2863V10.2863H10.8563V11.4262H10.2863V12H9.1425V11.4262H9.7125V11.4262L9.1425 11.4262V11.4262L8.5725 11.4263V10.8563H8.96466V10.8562H8.5725V10.8563H7.42875V10.2863H7.56194V10.2862H7.42875V10.2863H6.85875V9.7125H6.95568V9.71245H6.85875V9.7125H6.285V9.1425H6.4829V9.14246H6.285V9.1425H5.715V9.7125H5.14125V10.2863H4.57125V10.8563H3.4275V11.4262H2.8575V12H1.71375V11.4262H1.14375V10.2863H1.71375V10.8563H1.71387L1.71387 10.2863H1.71375L1.71375 9.1425H2.2875V9.14255H2.40546V9.1425H2.2875V7.99875H2.8575V7.99878H3.33929V7.99875H2.8575V6.855H2.2875V6.285H1.14375V5.71125H0.57V5.14125H0V4.57125H0.57V3.9975H4.00125V2.8575H4.57125V1.71375H5.14125V0.57H5.715V0H6.285V0.57H6.85875V1.71375H6.285V1.71378H6.85875V1.71375L7.42875 1.71375V2.8575H6.88101V2.85754H7.42875V2.8575H7.99875V2.85754ZM2.8575 5.71124V5.71125H3.19299V5.71124H2.8575Z" fill="#05F500"/>
</g>
<defs>
<clipPath id="clip0_1723_13957">
<rect width="12" height="12" fill="white"/>
</clipPath>
</defs>
</svg>
