<svg width="254" height="40" viewBox="0 0 254 40" fill="none" xmlns="http://www.w3.org/2000/svg">
<path d="M15.9723 27.5554V21.6665H13.0279V18.7221H10.0834V15.7777H7.13896V12.8332H4.19452V6.94432H7.13896V3.99988H18.9167V6.94432H21.8612V9.88877H15.9723V6.94432H10.0834V12.8332H13.0279V15.7777H15.9723V18.7221H18.9167V21.6665H21.8612V27.5554H18.9167V30.4999H7.13896V27.5554H4.19452V24.611H10.0834V27.5554H15.9723Z" fill="#A6A6A6"/>
<path d="M42.4723 10.9443V25.6665H39.5279V28.611H30.6946V37.4443H24.8057V7.99988H39.5279V10.9443H42.4723ZM36.5834 10.9443H30.6946V25.6665H36.5834V10.9443Z" fill="#A6A6A6"/>
<path d="M48.3611 10.9443V7.99988H60.1389V10.9443H63.0834V28.611H48.3611V25.6665H45.4167V19.7777H48.3611V16.8332H57.1945V10.9443H48.3611ZM57.1945 19.7777H51.3056V25.6665H57.1945V19.7777Z" fill="#A6A6A6"/>
<path d="M108.722 10.9443V7.99988H120.5V10.9443H123.444V28.611H108.722V25.6665H105.778V19.7777H108.722V16.8332H117.556V10.9443H108.722ZM117.556 19.7777H111.667V25.6665H117.556V19.7777Z" fill="#A6A6A6"/>
<path d="M71.9167 7.99988V13.8888H74.8612V16.8332H71.9167V28.611H66.0278V7.99988H71.9167ZM83.6945 13.8888H74.8612V10.9443H77.8056V7.99988H83.6945V13.8888Z" fill="#A6A6A6"/>
<path d="M94 1.99988V7.88877H102.833V10.8332H94V25.5554H102.833V28.4999H91.0556V25.5554H88.1111V10.8332H85.1667V7.88877H88.1111V1.99988H94Z" fill="#A6A6A6"/>
<path d="M163.194 6.94432V12.8332H157.306V6.94432H151.417V27.5554H157.306V21.6665H154.361V18.7221H163.194V30.4999H148.472V27.5554H145.528V6.94432H148.472V3.99988H160.25V6.94432H163.194Z" fill="#A6A6A6"/>
<path d="M169.083 12.9443V9.99988H180.861V12.9443H183.806V30.611H169.083V27.6665H166.139V21.7777H169.083V18.8332H177.917V12.9443H169.083ZM177.917 21.7777H172.028V27.6665H177.917V21.7777Z" fill="#A6A6A6"/>
<path d="M186.75 30.611V9.99988H204.417V12.9443H207.361V30.611H201.472V12.9443H198.528V27.6665H195.583V12.9443H192.639V30.611H186.75Z" fill="#A6A6A6"/>
<path d="M213.25 12.9443V9.99988H225.028V12.9443H227.972V21.7777H216.195V27.6665H225.028V30.611H213.25V27.6665H210.306V12.9443H213.25ZM222.083 12.9443H216.195V18.8332H222.083V12.9443Z" fill="#A6A6A6"/>
<path d="M230.917 18.8332V12.9443H233.861V9.99988H248.583V12.9443H236.806V18.8332H245.639V21.7777H248.583V27.6665H245.639V30.611H230.917V27.6665H242.694V21.7777H233.861V18.8332H230.917Z" fill="#A6A6A6"/>
</svg>
