<svg width="32" height="33" viewBox="0 0 32 33" fill="none" xmlns="http://www.w3.org/2000/svg">
<g id="Star" clip-path="url(#clip0_2634_33155)">
<g id="Group">
<path id="Vector" d="M31.9985 12.5898H30.4785V14.1098H31.9985V12.5898Z" fill="#BFBFBF"/>
<path id="Vector_2" d="M30.4792 14.1094H28.9492V15.6294H30.4792V14.1094Z" fill="#BFBFBF"/>
<path id="Vector_3" d="M28.9477 27.832H27.4277V30.872H28.9477V27.832Z" fill="#BFBFBF"/>
<path id="Vector_4" d="M27.4284 24.7773H25.8984V27.8273H27.4284V24.7773Z" fill="#BFBFBF"/>
<path id="Vector_5" d="M28.9484 15.6328H25.8984V17.1628H28.9484V15.6328Z" fill="#BFBFBF"/>
<path id="Vector_6" d="M27.4289 30.8711H24.3789V32.4011H27.4289V30.8711Z" fill="#BFBFBF"/>
<path id="Vector_7" d="M25.8989 21.7305H24.3789V24.7805H25.8989V21.7305Z" fill="#BFBFBF"/>
<path id="Vector_8" d="M25.8989 17.1641H24.3789V18.6841H25.8989V17.1641Z" fill="#BFBFBF"/>
<path id="Vector_9" d="M24.3794 29.3516H22.8594V30.8716H24.3794V29.3516Z" fill="#BFBFBF"/>
<path id="Vector_10" d="M24.3794 18.6875H22.8594V21.7375H24.3794V18.6875Z" fill="#BFBFBF"/>
<path id="Vector_11" d="M22.8586 27.832H19.8086V29.352H22.8586V27.832Z" fill="#BFBFBF"/>
<path id="Vector_12" d="M30.4781 11.0625H21.3281V12.5925H30.4781V11.0625Z" fill="#BFBFBF"/>
<path id="Vector_13" d="M21.3286 8.02344H19.8086V11.0634H21.3286V8.02344Z" fill="#BFBFBF"/>
<path id="Vector_14" d="M19.8071 26.3047H18.2871V27.8347H19.8071V26.3047Z" fill="#BFBFBF"/>
<path id="Vector_15" d="M19.8071 4.97266H18.2871V8.02266H19.8071V4.97266Z" fill="#BFBFBF"/>
<path id="Vector_16" d="M18.2878 24.7773H16.7578V26.2973H18.2878V24.7773Z" fill="#BFBFBF"/>
<path id="Vector_17" d="M18.2878 1.92188H16.7578V4.97188H18.2878V1.92188Z" fill="#BFBFBF"/>
<path id="Vector_18" d="M16.7563 23.25H15.2363V24.78H16.7563V23.25Z" fill="#BFBFBF"/>
<path id="Vector_19" d="M16.7563 0.402344H15.2363V1.92234H16.7563V0.402344Z" fill="#BFBFBF"/>
<path id="Vector_20" d="M15.239 24.7773H13.709V26.2973H15.239V24.7773Z" fill="#BFBFBF"/>
<path id="Vector_21" d="M15.239 1.92188H13.709V4.97188H15.239V1.92188Z" fill="#BFBFBF"/>
<path id="Vector_22" d="M13.7055 26.3047H12.1855V27.8347H13.7055V26.3047Z" fill="#BFBFBF"/>
<path id="Vector_23" d="M13.7055 4.97266H12.1855V8.02266H13.7055V4.97266Z" fill="#BFBFBF"/>
<path id="Vector_24" d="M12.186 8.02344H10.666V11.0634H12.186V8.02344Z" fill="#BFBFBF"/>
<path id="Vector_25" d="M12.1906 27.832H9.14062V29.352H12.1906V27.832Z" fill="#BFBFBF"/>
<path id="Vector_26" d="M9.13914 29.3516H7.61914V30.8716H9.13914V29.3516Z" fill="#BFBFBF"/>
<path id="Vector_27" d="M9.13914 18.6875H7.61914V21.7375H9.13914V18.6875Z" fill="#BFBFBF"/>
<path id="Vector_28" d="M7.61766 21.7305H6.09766V24.7805H7.61766V21.7305Z" fill="#BFBFBF"/>
<path id="Vector_29" d="M7.61766 17.1641H6.09766V18.6841H7.61766V17.1641Z" fill="#BFBFBF"/>
<path id="Vector_30" d="M7.61836 30.8711H4.56836V32.4011H7.61836V30.8711Z" fill="#BFBFBF"/>
<path id="Vector_31" d="M6.09836 24.7773H4.56836V27.8273H6.09836V24.7773Z" fill="#BFBFBF"/>
<path id="Vector_32" d="M6.09883 15.6328H3.04883V17.1628H6.09883V15.6328Z" fill="#BFBFBF"/>
<path id="Vector_33" d="M4.56883 27.832H3.04883V30.872H4.56883V27.832Z" fill="#BFBFBF"/>
<path id="Vector_34" d="M10.6676 11.0625H1.51758V12.5925H10.6676V11.0625Z" fill="#BFBFBF"/>
<path id="Vector_35" d="M3.04758 14.1094H1.51758V15.6294H3.04758V14.1094Z" fill="#BFBFBF"/>
<path id="Vector_36" d="M1.51805 12.5898H-0.00195312V14.1098H1.51805V12.5898Z" fill="#BFBFBF"/>
</g>
</g>
<defs>
<clipPath id="clip0_2634_33155">
<rect width="32" height="32" fill="white" transform="translate(0 0.398438)"/>
</clipPath>
</defs>
</svg>
