<svg xmlns="http://www.w3.org/2000/svg" width="12" height="12" viewBox="0 0 12 12" fill="none">
  <g clip-path="url(#clip0_562_6525)">
    <path fill-rule="evenodd" clip-rule="evenodd" d="M6.285 0H5.715V0.569946L5.14124 0.569946V1.71375H4.56934V2.8575L4.00125 2.8575V3.9975L0.57 3.9975V4.42688H0.566162V4.57125L0 4.57125V5.14125H0.566162L0.566162 5.7113H1.14375V6.285L2.28174 6.285V6.28503H2.2875V6.855L2.8575 6.855V7.99875L2.2875 7.99875V9.1425H1.71375V10.2863L1.14375 10.2863V11.4263L1.71375 11.4262V12H2.8575L2.8575 11.4299H2.85754V11.4263H3.4275V10.8563H4.57125V10.2863H5.14125V9.7125H5.715V9.1425H6.285V9.7125H6.85875V10.2863H7.42875V9.7125H6.85875L6.85875 9.1425H6.285L6.285 8.56875H6L6 5.7113V4.42688V0.57H6.285L6.285 1.71375H6.85875L6.85875 2.8575H7.42875V1.71375L6.85875 1.71375V0.57L6.285 0.57V0ZM5.715 9.1425H5.4281V9.14246H5.715V9.1425ZM5.14125 9.7125H4.57125V10.2863L4.56934 10.2863V9.7124H5.14125V9.7125ZM2.85754 10.8563H3.4275V10.8562H2.85754V10.8563ZM2.2876 9.71436V9.1425H2.2875V9.71436H2.2876ZM1.7157 10.2863H1.71375V11.4262H1.7157L1.7157 10.2863ZM2.8575 7.99875H2.85754V9.14062H2.8575V7.99875ZM2.8575 6.855V6.28503H2.85754V6.855H2.8575ZM4.00125 3.9975H4.56934V3.99756H4.00125V3.9975ZM7.99875 2.8575H7.42875V3.9975H7.99875L7.99875 4.57125H11.43L11.43 5.14125H10.8563V5.71125L9.7125 5.71125V6.285L9.1425 6.285V6.855L8.5725 6.855V7.99875L9.1425 7.99875V9.1425H9.7125V10.2863L10.2863 10.2863V11.4263L9.1425 11.4262V10.8563H8.5725V10.2863H7.42875V10.8563H8.5725V11.4263L9.1425 11.4262V12H10.2863L10.2863 11.4263H10.8563V10.2863H10.2863L10.2863 9.1425H9.7125V7.99875H9.1425V6.855H9.7125V6.285H10.8562L10.8563 5.71125H11.43V5.14125H12V4.57125L11.43 4.57125V3.9975L7.99875 3.9975V2.8575Z" fill="#05F500"/>
  </g>
  <defs>
    <clipPath id="clip0_562_6525">
      <rect width="12" height="12" fill="white"/>
    </clipPath>
  </defs>
</svg>