<svg width="20" height="21" viewBox="0 0 20 21" fill="none" xmlns="http://www.w3.org/2000/svg">
<g clip-path="url(#clip0_3230_204061)">
<path fill-rule="evenodd" clip-rule="evenodd" d="M10.0558 0.900024H9.14375V1.81194L8.22598 1.81194V3.64202H7.31406H7.31035V5.472H6.40156V7.296H7.31035V7.29612H6.4025V7.29602H0.9125V7.98303H0.90586V8.21399H0V9.12599H0.90586L0.905859 10.0381H1.82969V10.956H3.65137V10.9561H3.65937V11.868H4.57129L4.57129 13.6981H3.65937V15.5281H2.74219V17.3581H2.74492L2.74492 19.1821H2.74219V20.1001H4.57219V19.1821L4.57188 19.182H5.48388V18.27H4.57188V18.2699H5.48438V18.27H7.31437V17.3581H8.22606V16.4401H7.31406V17.358H7.31094V16.4399H8.22656V16.4401H9.14456V15.5281H8.68437V15.528H9.14375V15.528H10.0558V14.61H9.6L9.6 10.0381V7.98303V1.81202H10.0558V0.900024ZM3.66074 16.443V15.5281H3.66019V16.443H3.66074ZM10.9743 1.81204H10.0563V3.64204H10.9734V5.47202H11.8854V3.64202H10.9743V1.81204ZM12.7979 5.472H11.8859V7.296H12.7979V5.472ZM12.7984 7.29602H18.2884V8.21399H19.1995V9.12599H18.2875V8.21402H12.7984V7.29602ZM17.3703 9.126H18.2883V10.038H17.3703V9.126ZM16.4578 17.3581H15.5406V15.5281H16.4586V17.358H17.3698V19.182H16.4578V17.3581ZM17.3706 10.038H15.5406V10.956H17.3706V10.038ZM14.6281 19.1821H16.4581V20.1001H14.6281V19.1821ZM15.5401 13.6981H14.6281V15.5281H15.5401V13.6981ZM14.6281 10.956H15.5401V11.868H14.6281V10.956ZM14.6276 18.27H13.7156V19.182H14.6276V18.27ZM13.7156 11.868H14.6276V13.698H13.7156V11.868ZM13.7159 17.358H11.8859V18.27H13.7159V17.358ZM10.9734 16.4401H11.8854V17.3581H10.9734V16.4401ZM10.0563 15.5281H10.9743V16.4401H10.0563V15.5281ZM2.74169 17.358H1.82969V19.182H2.74169V17.358Z" fill="#05F500"/>
</g>
<defs>
<clipPath id="clip0_3230_204061">
<rect width="19.2" height="19.2" fill="white" transform="translate(0 0.900024)"/>
</clipPath>
</defs>
</svg>
