<svg width="33" height="33" viewBox="0 0 33 33" fill="none" xmlns="http://www.w3.org/2000/svg">
<path d="M31.3296 9.64H29.7996V6.59H28.2796V5.07H26.7496V3.55H23.7096V2.02H20.6596V0.5H13.0396V2.02H9.98961V3.55H6.93961V5.07H5.41961V6.59H3.89961V9.64H2.36961V12.69H0.849609V20.31H2.36961V23.36H3.89961V26.4H5.41961V27.93H6.93961V29.45H9.98961V30.98H13.0396V32.5H20.6596V30.98H23.7096V29.45H26.7496V27.93H28.2796V26.4H29.7996V23.36H31.3296V20.31H32.8496V12.69H31.3296V9.64ZM13.0396 6.59H14.5596V5.07H19.1396V6.59H20.6596V11.17H19.1396V12.69H14.5596V11.17H13.0396V6.59ZM23.7096 26.4H22.1796V27.93H14.5596V26.4H13.0396V15.74H14.5596V14.21H19.1396V15.74H20.6596V23.36H22.1796V24.88H23.7096V26.4Z" fill="white"/>
</svg>
