<svg width="32" height="30" viewBox="0 0 32 30" fill="none" xmlns="http://www.w3.org/2000/svg">
<path d="M1.52 8.14005H30.48V27.9501H32V2.05005H30.48V6.62005H1.52V2.05005H0V27.9501H1.52V8.14005Z" fill="white"/>
<path d="M30.48 27.9501H1.52002V29.4801H30.48V27.9501Z" fill="white"/>
<path d="M4.56982 11.1901V24.9101H27.4298V11.1901H4.56982ZM13.7098 18.8101H12.1898V20.3301H10.6698V21.8601H9.13982V20.3301H10.6698V18.8101H12.1898V17.2901H10.6698V15.7601H9.13982V14.2401H10.6698V15.7601H12.1898V17.2901H13.7098V18.8101ZM22.8598 18.8101H16.7598V17.2901H22.8598V18.8101Z" fill="white"/>
<path d="M10.6701 3.57007H9.14014V5.10007H10.6701V3.57007Z" fill="white"/>
<path d="M7.6201 3.57007H6.1001V5.10007H7.6201V3.57007Z" fill="white"/>
<path d="M4.5698 3.57007H3.0498V5.10007H4.5698V3.57007Z" fill="white"/>
<path d="M30.48 0.52002H1.52002V2.05002H30.48V0.52002Z" fill="white"/>
</svg>
