<svg width="12" height="12" viewBox="0 0 12 12" fill="none" xmlns="http://www.w3.org/2000/svg">
<g clip-path="url(#clip0_1723_14068)">
<path d="M12 4.57123H11.43V5.14123H12V4.57123Z" fill="#05F500"/>
<path d="M11.43 5.14124H10.8563V5.71124H11.43V5.14124Z" fill="#05F500"/>
<path d="M10.8563 10.2863H10.2863V11.4263H10.8563V10.2863Z" fill="#05F500"/>
<path d="M10.2863 9.14252H9.71252V10.2863H10.2863V9.14252Z" fill="#05F500"/>
<path d="M10.8563 5.71124H9.71252V6.28499H10.8563V5.71124Z" fill="#05F500"/>
<path d="M10.2863 11.4263H9.14252V12H10.2863V11.4263Z" fill="#05F500"/>
<path d="M9.71252 7.99878H9.14252V9.14253H9.71252V7.99878Z" fill="#05F500"/>
<path d="M9.71252 6.28497H9.14252V6.85497H9.71252V6.28497Z" fill="#05F500"/>
<path d="M9.14251 10.8563H8.57251V11.4263H9.14251V10.8563Z" fill="#05F500"/>
<path d="M9.14251 6.85498H8.57251V7.99873H9.14251V6.85498Z" fill="#05F500"/>
<path d="M8.57252 10.2863H7.42877V10.8563H8.57252V10.2863Z" fill="#05F500"/>
<path d="M11.43 3.9975H7.99878V4.57125H11.43V3.9975Z" fill="#05F500"/>
<path d="M7.99877 2.85748H7.42877V3.99748H7.99877V2.85748Z" fill="#05F500"/>
<path d="M7.42876 9.71252H6.85876V10.2863H7.42876V9.71252Z" fill="#05F500"/>
<path d="M7.42876 1.71375H6.85876V2.8575H7.42876V1.71375Z" fill="#05F500"/>
<path d="M6.85872 9.14252H6.28497V9.71252H6.85872V9.14252Z" fill="#05F500"/>
<path d="M6.85872 0.570007H6.28497V1.71376H6.85872V0.570007Z" fill="#05F500"/>
<path d="M6.28503 8.56873H5.71503V9.14248H6.28503V8.56873Z" fill="#05F500"/>
<path d="M6.28503 0H5.71503V0.57H6.28503V0Z" fill="#05F500"/>
<path d="M5.71499 9.14252H5.14124V9.71252H5.71499V9.14252Z" fill="#05F500"/>
<path d="M5.71499 0.570007H5.14124V1.71376H5.71499V0.570007Z" fill="#05F500"/>
<path d="M5.14123 9.71252H4.57123V10.2863H5.14123V9.71252Z" fill="#05F500"/>
<path d="M5.14123 1.71375H4.57123V2.8575H5.14123V1.71375Z" fill="#05F500"/>
<path d="M4.57122 2.85748H4.00122V3.99748H4.57122V2.85748Z" fill="#05F500"/>
<path d="M4.57124 10.2863H3.42749V10.8563H4.57124V10.2863Z" fill="#05F500"/>
<path d="M3.42748 10.8563H2.85748V11.4263H3.42748V10.8563Z" fill="#05F500"/>
<path d="M3.42748 6.85498H2.85748V7.99873H3.42748V6.85498Z" fill="#05F500"/>
<path d="M2.85748 7.99878H2.28748V9.14253H2.85748V7.99878Z" fill="#05F500"/>
<path d="M2.85748 6.28497H2.28748V6.85497H2.85748V6.28497Z" fill="#05F500"/>
<path d="M2.8575 11.4263H1.71375V12H2.8575V11.4263Z" fill="#05F500"/>
<path d="M2.2875 9.14252H1.71375V10.2863H2.2875V9.14252Z" fill="#05F500"/>
<path d="M2.28749 5.71124H1.14374V6.28499H2.28749V5.71124Z" fill="#05F500"/>
<path d="M1.71374 10.2863H1.14374V11.4263H1.71374V10.2863Z" fill="#05F500"/>
<path d="M4.00126 3.9975H0.570007V4.57125H4.00126V3.9975Z" fill="#05F500"/>
<path d="M1.14376 5.14124H0.570007V5.71124H1.14376V5.14124Z" fill="#05F500"/>
<path d="M0.57 4.57123H0V5.14123H0.57V4.57123Z" fill="#05F500"/>
</g>
<defs>
<clipPath id="clip0_1723_14068">
<rect width="12" height="12" fill="white"/>
</clipPath>
</defs>
</svg>