<svg width="20" height="21" viewBox="0 0 20 21" fill="none" xmlns="http://www.w3.org/2000/svg">
<g clip-path="url(#clip0_3230_204108)">
<path d="M19.5995 8.21399H18.6875V9.12599H19.5995V8.21399Z" fill="#05F500"/>
<path d="M18.6885 9.12598H17.7705V10.038H18.6885V9.12598Z" fill="#05F500"/>
<path d="M17.7704 17.358H16.8584V19.182H17.7704V17.358Z" fill="#05F500"/>
<path d="M16.8584 15.5281H15.9404V17.3581H16.8584V15.5281Z" fill="#05F500"/>
<path d="M17.7704 10.038H15.9404V10.956H17.7704V10.038Z" fill="#05F500"/>
<path d="M16.8583 19.1821H15.0283V20.1001H16.8583V19.1821Z" fill="#05F500"/>
<path d="M15.9403 13.6981H15.0283V15.5281H15.9403V13.6981Z" fill="#05F500"/>
<path d="M15.9403 10.956H15.0283V11.868H15.9403V10.956Z" fill="#05F500"/>
<path d="M15.0282 18.27H14.1162V19.182H15.0282V18.27Z" fill="#05F500"/>
<path d="M15.0282 11.868H14.1162V13.698H15.0282V11.868Z" fill="#05F500"/>
<path d="M14.1161 17.358H12.2861V18.27H14.1161V17.358Z" fill="#05F500"/>
<path d="M18.6882 7.29602H13.1982V8.21402H18.6882V7.29602Z" fill="#05F500"/>
<path d="M13.1981 5.47198H12.2861V7.29598H13.1981V5.47198Z" fill="#05F500"/>
<path d="M12.286 16.4401H11.374V17.3581H12.286V16.4401Z" fill="#05F500"/>
<path d="M12.286 3.64203H11.374V5.47203H12.286V3.64203Z" fill="#05F500"/>
<path d="M11.3741 15.5281H10.4561V16.4401H11.3741V15.5281Z" fill="#05F500"/>
<path d="M11.3741 1.81201H10.4561V3.64201H11.3741V1.81201Z" fill="#05F500"/>
<path d="M10.4559 14.61H9.54395V15.528H10.4559V14.61Z" fill="#05F500"/>
<path d="M10.4559 0.900024H9.54395V1.81202H10.4559V0.900024Z" fill="#05F500"/>
<path d="M9.54495 15.5281H8.62695V16.4401H9.54495V15.5281Z" fill="#05F500"/>
<path d="M9.54495 1.81201H8.62695V3.64201H9.54495V1.81201Z" fill="#05F500"/>
<path d="M8.62587 16.4401H7.71387V17.3581H8.62587V16.4401Z" fill="#05F500"/>
<path d="M8.62587 3.64203H7.71387V5.47203H8.62587V3.64203Z" fill="#05F500"/>
<path d="M7.71376 5.47198H6.80176V7.29598H7.71376V5.47198Z" fill="#05F500"/>
<path d="M7.71477 17.358H5.88477V18.27H7.71477V17.358Z" fill="#05F500"/>
<path d="M5.88368 18.27H4.97168V19.182H5.88368V18.27Z" fill="#05F500"/>
<path d="M5.88368 11.868H4.97168V13.698H5.88368V11.868Z" fill="#05F500"/>
<path d="M4.97157 13.6981H4.05957V15.5281H4.97157V13.6981Z" fill="#05F500"/>
<path d="M4.97157 10.956H4.05957V11.868H4.97157V10.956Z" fill="#05F500"/>
<path d="M4.97258 19.1821H3.14258V20.1001H4.97258V19.1821Z" fill="#05F500"/>
<path d="M4.06058 15.5281H3.14258V17.3581H4.06058V15.5281Z" fill="#05F500"/>
<path d="M4.05949 10.038H2.22949V10.956H4.05949V10.038Z" fill="#05F500"/>
<path d="M3.14149 17.358H2.22949V19.182H3.14149V17.358Z" fill="#05F500"/>
<path d="M6.8025 7.29602H1.3125V8.21402H6.8025V7.29602Z" fill="#05F500"/>
<path d="M2.2305 9.12598H1.3125V10.038H2.2305V9.12598Z" fill="#05F500"/>
<path d="M1.31239 8.21399H0.400391V9.12599H1.31239V8.21399Z" fill="#05F500"/>
</g>
<defs>
<clipPath id="clip0_3230_204108">
<rect width="19.2" height="19.2" fill="white" transform="translate(0.400391 0.900024)"/>
</clipPath>
</defs>
</svg>
